<?xml version="1.0" standalone="no"?>
<!DOCTYPE svg PUBLIC "-//W3C//DTD SVG 1.1//EN" "http://www.w3.org/Graphics/SVG/1.1/DTD/svg11.dtd" >
<svg xmlns="http://www.w3.org/2000/svg" xmlns:xlink="http://www.w3.org/1999/xlink" version="1.1">
<metadata>
Created by FontForge 20201107 at Fri Feb  7 20:50:21 2020
 By Unknown
Copyright (c) 2020 by Luciano Vergara. All rights reserved.
</metadata>
<defs>
<font id="NeogroteskEss-Regular" horiz-adv-x="0" >
  <font-face 
    font-family="Neogrotesk Ess"
    font-weight="400"
    font-stretch="normal"
    units-per-em="1000"
    panose-1="0 0 5 0 0 0 0 0 0 0"
    ascent="750"
    descent="-250"
    x-height="500"
    cap-height="690"
    bbox="-778 -266 1350 973"
    underline-thickness="50"
    underline-position="-100"
    unicode-range="U+000D-F8FF"
  />
<missing-glyph horiz-adv-x="573" 
d="M489 690v-690h-405v690h405zM178 603v-435l173 435h-173zM395 87v427l-170 -427h170z" />
    <glyph glyph-name=".notdef" horiz-adv-x="573" 
d="M489 690v-690h-405v690h405zM178 603v-435l173 435h-173zM395 87v427l-170 -427h170z" />
    <glyph glyph-name=".null" 
 />
    <glyph glyph-name="nonmarkingreturn" unicode="&#xd;" horiz-adv-x="250" 
 />
    <glyph glyph-name="space" unicode=" " horiz-adv-x="230" 
 />
    <glyph glyph-name="exclam" unicode="!" horiz-adv-x="267" 
d="M87 217l-11 473h115l-10 -473h-94zM68 53q0 30 19.5 46.5t46.5 16.5q26 0 45.5 -16.5t19.5 -46.5t-19.5 -46.5t-45.5 -16.5q-27 0 -46.5 16.5t-19.5 46.5z" />
    <glyph glyph-name="quotedbl" unicode="&#x22;" horiz-adv-x="385" 
d="M55 607v83h100v-83l-19 -185h-63zM230 607v83h101v-83l-19 -185h-63z" />
    <glyph glyph-name="numbersign" unicode="#" horiz-adv-x="755" 
d="M589 436l-40 -145h114l-25 -90h-113l-58 -211h-104l58 211h-170l-58 -211h-108l58 211h-114l25 90h113l40 145h-113l24 90h113l48 174h108l-48 -174h170l48 174h104l-48 -174h114l-25 -90h-113zM485 436h-170l-40 -145h170z" />
    <glyph glyph-name="dollar" unicode="$" horiz-adv-x="597" 
d="M563 188q0 -78 -54 -132.5t-164 -64.5v-103h-85v103q-117 9 -173 68.5t-56 154.5h102q0 -63 42 -101t128 -38q79 1 119 29t40 79q0 46 -30.5 71t-86.5 36l-110 24q-88 19 -135 63.5t-47 128.5q0 37 12.5 70t38 58.5t64.5 42.5t92 21v102h85v-103q103 -12 153.5 -72
t50.5 -151h-101q0 68 -40.5 105t-117.5 35q-68 -2 -102 -28t-34 -74q0 -45 27 -68t79 -34l118 -27q100 -23 142.5 -70t42.5 -125z" />
    <glyph glyph-name="percent" unicode="%" horiz-adv-x="967" 
d="M640 700h99l-417 -710h-99zM389 485q0 -51 -13.5 -90.5t-38 -67.5t-57.5 -42.5t-72 -14.5q-79 0 -128 54t-49 159q0 51 13.5 90.5t37.5 67t57 41.5t72 14q79 0 128.5 -55t49.5 -156zM292 482q0 67 -21.5 101t-60.5 34t-60.5 -33t-21.5 -100q0 -68 21.5 -101.5t60.5 -33.5
t60.5 33.5t21.5 99.5zM937 209q0 -51 -13.5 -90.5t-38 -67.5t-57.5 -42.5t-72 -14.5q-79 0 -128 54t-49 159q0 51 13.5 90.5t37.5 67t57 41.5t72 14q79 0 128.5 -55t49.5 -156zM840 206q0 67 -21.5 101t-60.5 34t-60.5 -33t-21.5 -100q0 -68 21.5 -101.5t60.5 -33.5
t60.5 33.5t21.5 99.5z" />
    <glyph glyph-name="ampersand" unicode="&#x26;" horiz-adv-x="693" 
d="M692 9v-9h-118l-56 51q-45 -32 -103 -49.5t-131 -17.5q-118 0 -183 45.5t-65 126.5q0 36 12.5 64.5t33.5 52.5t49 44t58 37q-35 35 -60.5 75t-25.5 95q0 42 15.5 74.5t42.5 55t63.5 34.5t78.5 12q45 0 81 -12.5t61.5 -35t39 -52.5t13.5 -66q0 -34 -13.5 -62.5
t-36.5 -51.5t-52.5 -42.5t-61.5 -37.5l187 -173q26 32 40.5 68t20.5 73h91q-10 -55 -32 -105.5t-58 -92.5zM194 525q0 -37 23 -68t54 -60q28 15 53 29t43.5 30t29.5 33.5t11 38.5q0 35 -25.5 62t-78.5 27q-48 0 -79 -24.5t-31 -67.5zM288 64q52 0 94 12t74 32l-204 187
q-25 -14 -47.5 -29t-39.5 -31t-26.5 -34.5t-9.5 -40.5q0 -46 42.5 -71t116.5 -25z" />
    <glyph glyph-name="quotesingle" unicode="'" horiz-adv-x="210" 
d="M55 607v83h100v-83l-19 -185h-63z" />
    <glyph glyph-name="parenleft" unicode="(" horiz-adv-x="371" 
d="M351 -180q-70 0 -127 30t-97.5 88.5t-62 145t-21.5 200.5q0 111 23 197.5t64 146.5t97.5 91t123.5 31v-92q-46 -1 -84 -23.5t-65.5 -68.5t-42.5 -116t-15 -165q0 -94 15 -164t42.5 -116t65.5 -69t84 -24v-92z" />
    <glyph glyph-name="parenright" unicode=")" horiz-adv-x="371" 
d="M20 -88q46 1 84 24t65.5 69t42.5 116t15 164q0 95 -15 165t-42.5 116t-65.5 68.5t-84 23.5v92q67 0 123.5 -31t97.5 -91t64 -146.5t23 -197.5q0 -114 -21.5 -200.5t-61.5 -145t-97 -88.5t-128 -30v92z" />
    <glyph glyph-name="asterisk" unicode="*" horiz-adv-x="470" 
d="M295 476l90 -117l-81 -53l-69 131l-69 -131l-81 53l90 117l-143 38l34 91l133 -62l-13 147h97l-13 -147l134 62l34 -91z" />
    <glyph glyph-name="plus" unicode="+" horiz-adv-x="495" 
d="M460 223h-164v-169h-97v169h-165v88h165v169h97v-169h164v-88z" />
    <glyph glyph-name="comma" unicode="," horiz-adv-x="233" 
d="M184 54q0 -12 -4.5 -25t-9.5 -24l-63 -137h-57v12l29 120q-13 8 -21 21.5t-8 32.5q0 31 20 47.5t47 16.5t47 -16.5t20 -47.5z" />
    <glyph glyph-name="hyphen" unicode="-" horiz-adv-x="468" 
d="M407 325v-89h-347v89h347z" />
    <glyph glyph-name="period" unicode="." horiz-adv-x="229" 
d="M48 54q0 31 20 47.5t47 16.5t47 -16.5t20 -47.5t-20 -47.5t-47 -16.5t-47 16.5t-20 47.5z" />
    <glyph glyph-name="slash" unicode="/" horiz-adv-x="464" 
d="M340 700h101l-317 -710h-101z" />
    <glyph glyph-name="zero" unicode="0" horiz-adv-x="683" 
d="M633 348q0 -85 -21.5 -151.5t-60.5 -112.5t-93.5 -70t-120.5 -24q-65 0 -118 23t-90.5 68t-58 111t-20.5 153q0 85 21.5 151t60.5 111.5t93 69t120 23.5t119 -23.5t90.5 -68.5t58 -110.5t20.5 -149.5zM525 344q0 134 -49.5 199t-134.5 65t-133.5 -64t-48.5 -198
t48.5 -199t133.5 -65t134.5 64t49.5 198z" />
    <glyph glyph-name="one" unicode="1" horiz-adv-x="386" 
d="M300 690v-690h-105v558q-79 -56 -172 -87v94q52 20 101.5 51.5t100.5 73.5h75z" />
    <glyph glyph-name="two" unicode="2" horiz-adv-x="605" 
d="M327 323q47 37 77.5 75t30.5 91t-32 86t-100 33q-69 0 -107.5 -41t-38.5 -112h-107q0 56 18.5 101t53 77t82.5 49.5t107 17.5q54 0 97 -16t73 -43t46 -64t17 -79q2 -73 -38 -130.5t-99 -104.5l-142 -114q-19 -15 -41 -32t-41 -31q32 2 78 3.5t95 1.5h209v-91h-522v92z
" />
    <glyph glyph-name="three" unicode="3" horiz-adv-x="614" 
d="M437 358q62 -17 96 -60.5t34 -105.5q0 -45 -19.5 -82t-54.5 -63.5t-84.5 -41.5t-108.5 -15q-60 0 -108 16t-81.5 46t-51.5 73t-18 97h107q0 -67 39 -104.5t112 -37.5q75 0 117.5 31.5t42.5 85.5q0 28 -11 49t-30.5 34.5t-45 20.5t-55.5 7h-112v84h110q53 0 87.5 28
t34.5 76q0 49 -32.5 81.5t-98.5 32.5q-72 0 -108.5 -37.5t-36.5 -103.5h-106q0 53 18 96t51.5 73t80.5 46t104 16q56 0 99 -15t73 -41t45.5 -60.5t15.5 -73.5q0 -53 -29 -92t-76 -60z" />
    <glyph glyph-name="four" unicode="4" horiz-adv-x="628" 
d="M596 154h-102v-154h-105v154h-366l-1 89l346 447h126v-445h102v-91zM389 245v217q0 23 1 59t2 63q-15 -22 -35 -49t-35 -47l-132 -170q-15 -19 -32 -39.5t-31 -36.5q22 1 52 2t56 1h154z" />
    <glyph glyph-name="five" unicode="5" horiz-adv-x="590" 
d="M325 451q46 0 87 -15t71.5 -44.5t48.5 -71.5t18 -96q0 -56 -19.5 -99.5t-54 -73.5t-81 -45.5t-100.5 -15.5q-55 0 -100 13.5t-76.5 39t-49 63.5t-17.5 86h108q2 -55 37.5 -83.5t95.5 -28.5q30 0 57.5 9.5t47.5 27.5t32 45t12 62q0 66 -39 103t-102 37q-52 0 -91.5 -24
t-55.5 -58h-97l28 408h425v-94h-334l-15 -207q32 34 75 48t89 14z" />
    <glyph glyph-name="six" unicode="6" horiz-adv-x="637" 
d="M361 430q47 0 88.5 -14t72 -41.5t48.5 -67.5t18 -92q0 -51 -19 -92.5t-53 -71t-81 -45.5t-103 -16q-136 0 -209 89t-73 259q0 86 20.5 153t57 113.5t88.5 71t115 24.5q54 0 98.5 -16t76.5 -45t50 -71t19 -93h-106q-2 69 -41 101t-102 32q-46 0 -78 -21t-51.5 -58.5
t-28.5 -89.5t-10 -114q28 49 82.5 77t120.5 28zM327 81q35 0 63.5 10t48 28t30 42t10.5 52q0 55 -35 90t-105 37q-27 0 -53 -8t-48.5 -23.5t-40 -37.5t-26.5 -51q11 -63 52 -101t104 -38z" />
    <glyph glyph-name="seven" unicode="7" horiz-adv-x="529" 
d="M510 690v-80q-112 -130 -177 -284.5t-65 -325.5h-113q6 171 64.5 320t159.5 281q-30 -2 -74.5 -3t-90.5 -1h-198v93h494z" />
    <glyph glyph-name="eight" unicode="8" horiz-adv-x="637" 
d="M320 700q59 0 104.5 -15t77 -40.5t48 -59t16.5 -69.5q0 -53 -31.5 -92.5t-81.5 -60.5q64 -18 101 -64.5t37 -106.5q0 -46 -20 -83.5t-56 -63.5t-86.5 -40.5t-110.5 -14.5t-110 14.5t-86 40.5t-56 63t-20 83q0 60 37 106.5t101 63.5q-49 22 -80.5 61t-31.5 93
q0 37 16.5 70.5t48 59t77.5 40.5t106 15zM318 398q65 0 103.5 29t38.5 78q0 47 -34.5 78.5t-106.5 31.5t-107 -31.5t-35 -78.5q0 -49 38 -78t103 -29zM319 75q77 0 120 31.5t43 88.5q0 59 -46 88t-117 29q-35 0 -65 -7.5t-52 -22t-34.5 -36.5t-12.5 -51q0 -57 43 -88.5
t121 -31.5z" />
    <glyph glyph-name="nine" unicode="9" horiz-adv-x="637" 
d="M304 700q137 0 209.5 -89t72.5 -259q0 -86 -20 -153t-57 -113.5t-88.5 -71t-114.5 -24.5q-55 0 -99.5 16t-76.5 45t-50 71t-19 93h107q2 -69 41 -101t102 -32q47 0 78.5 21t51 58.5t28 89.5t9.5 114q-28 -49 -82 -77t-120 -28q-47 0 -88.5 14t-72 41.5t-48.5 67.5t-18 92
q0 51 19 92.5t52.5 71t80.5 45.5t103 16zM298 350q27 0 53 8t48.5 23t40 37.5t26.5 51.5q-11 63 -52 101t-104 38q-35 0 -63.5 -10t-48 -28t-30 -42t-10.5 -52q0 -55 35 -90t105 -37z" />
    <glyph glyph-name="colon" unicode=":" horiz-adv-x="255" 
d="M60 446q0 31 20 47.5t47 16.5t47 -16.5t20 -47.5t-20 -47.5t-47 -16.5t-47 16.5t-20 47.5zM60 54q0 31 20 47.5t47 16.5t47 -16.5t20 -47.5t-20 -47.5t-47 -16.5t-47 16.5t-20 47.5z" />
    <glyph glyph-name="semicolon" unicode=";" horiz-adv-x="257" 
d="M62 446q0 31 20 47.5t46 16.5q27 0 47 -16.5t20 -47.5t-20 -47.5t-47 -16.5q-26 0 -46 16.5t-20 47.5zM195 54q0 -12 -4 -25t-9 -24l-63 -137h-57v12l29 120q-13 8 -21 21.5t-8 32.5q0 31 20 47.5t46 16.5q27 0 47 -16.5t20 -47.5z" />
    <glyph glyph-name="less" unicode="&#x3c;" horiz-adv-x="531" 
d="M479 411l-332 -161l332 -161v-99l-452 227v66l452 227v-99z" />
    <glyph glyph-name="equal" unicode="=" horiz-adv-x="565" 
d="M500 433v-86h-436v86h436zM500 208v-86h-436v86h436z" />
    <glyph glyph-name="greater" unicode="&#x3e;" horiz-adv-x="531" 
d="M504 283v-66l-452 -227v99l332 161l-332 161v99z" />
    <glyph glyph-name="question" unicode="?" horiz-adv-x="564" 
d="M427 507q0 48 -34.5 77t-103.5 31q-76 2 -118 -36t-42 -108h-101q0 50 17 92t50 72.5t82 47.5t113 17q62 0 107 -16.5t75 -44t44.5 -63.5t14.5 -75q0 -37 -10.5 -65.5t-27.5 -51.5t-40 -41.5t-48 -34.5q-36 -22 -52.5 -50.5t-16.5 -82.5l-104 1q0 39 5 69t17 54t33.5 44
t54.5 39q41 25 63 52.5t22 72.5zM213 54q0 31 20.5 47.5t49.5 16.5t49.5 -16.5t20.5 -47.5t-20.5 -47.5t-49.5 -16.5t-49.5 16.5t-20.5 47.5z" />
    <glyph glyph-name="at" unicode="@" horiz-adv-x="953" 
d="M531 691q77 0 146 -23.5t121 -68.5t82.5 -110t30.5 -147q0 -65 -15 -123.5t-44.5 -102t-72 -69t-98.5 -25.5q-49 0 -79 24.5t-35 59.5q-29 -31 -67 -47.5t-81 -16.5q-37 0 -67.5 13.5t-52 38t-33 58.5t-11.5 74q0 55 17.5 102.5t48.5 83t72.5 56t90.5 20.5q96 0 136 -60
l8 51h80l-54 -308q-1 -7 -2 -13.5t-1 -13.5q0 -21 10.5 -33.5t32.5 -12.5q33 0 57 21t39.5 54.5t23 75t7.5 83.5q0 70 -24 122t-65 86.5t-95 52t-115 17.5q-87 0 -159.5 -30.5t-125 -84.5t-81.5 -127t-29 -159q0 -72 23 -126t63 -90t93.5 -54t113.5 -18q48 0 96 7.5t86 19.5
v-84q-45 -13 -94.5 -19t-100.5 -6q-76 0 -143.5 24.5t-117.5 71t-79 114t-29 152.5q0 108 38 198.5t104.5 155t156.5 100.5t194 36zM438 116q42 0 80 23t60 61l24 137q-11 36 -39.5 57t-72.5 21q-36 0 -64.5 -15t-48 -40t-30 -57.5t-10.5 -68.5q0 -57 28 -87.5t73 -30.5z
" />
    <glyph glyph-name="A" unicode="A" horiz-adv-x="699" 
d="M510 185h-324l-71 -185h-109l276 690h132l282 -690h-114zM477 271l-65 167q-19 47 -36 94t-28 77q-11 -30 -28.5 -77t-35.5 -94l-64 -167h257z" />
    <glyph glyph-name="B" unicode="B" horiz-adv-x="697" 
d="M527 373q65 -18 97.5 -62t32.5 -111q0 -94 -64.5 -147t-183.5 -53h-325v690h298q116 0 175 -44t59 -127q0 -51 -23 -88.5t-66 -57.5zM189 601v-199h197q57 0 89.5 25.5t32.5 79.5q0 51 -36.5 72.5t-104.5 21.5h-178zM401 89q72 0 109.5 28.5t37.5 85.5q0 58 -37 86
t-100 28h-222v-228h212z" />
    <glyph glyph-name="C" unicode="C" horiz-adv-x="720" 
d="M684 243q-6 -60 -32.5 -107.5t-68.5 -79.5t-96 -49t-114 -17q-66 0 -126 23t-105 68t-71.5 111t-26.5 153q0 85 27 151t73 111.5t106.5 69t127.5 23.5q60 0 114 -16.5t95.5 -49t67 -79.5t29.5 -108h-106q-4 41 -22.5 71t-46 50t-62.5 30t-73 10q-43 0 -83.5 -16
t-71 -48.5t-49 -82t-18.5 -115.5t18.5 -115.5t49.5 -82.5t71.5 -49.5t83.5 -16.5q39 0 74 10t62 30t44.5 50.5t22.5 70.5h106z" />
    <glyph glyph-name="D" unicode="D" horiz-adv-x="735" 
d="M367 690q71 0 130 -22.5t102 -66t67 -107.5t24 -147t-25 -147.5t-69.5 -109t-104.5 -67.5t-131 -23h-276v690h283zM360 91q47 0 87.5 15t70 46.5t46.5 79.5t17 113t-17 112.5t-46.5 79t-70 47t-87.5 15.5h-171v-508h171z" />
    <glyph glyph-name="E" unicode="E" horiz-adv-x="628" 
d="M582 91v-91h-498v690h493v-91h-388v-198h346v-89h-346v-221h393z" />
    <glyph glyph-name="F" unicode="F" horiz-adv-x="594" 
d="M189 599v-216h344v-89h-344v-294h-105v690h481v-91h-376z" />
    <glyph glyph-name="G" unicode="G" horiz-adv-x="740" 
d="M683 78q-56 -41 -131 -64.5t-157 -23.5q-78 0 -142.5 23t-111 67.5t-72 110.5t-25.5 153q0 85 28 151t74.5 111.5t108.5 69.5t129 24q61 0 114 -16.5t92.5 -48t64 -78t27.5 -106.5h-107q-3 40 -19 70t-42.5 49.5t-60.5 29t-73 9.5q-44 0 -85.5 -16t-73 -49t-50.5 -82.5
t-19 -116.5t18.5 -116.5t51 -82.5t76.5 -49t95 -16q103 0 185 44v147h-165v84h270v-278z" />
    <glyph glyph-name="H" unicode="H" horiz-adv-x="757" 
d="M673 690v-690h-105v311h-379v-311h-105v690h105v-288h379v288h105z" />
    <glyph glyph-name="I" unicode="I" horiz-adv-x="273" 
d="M84 690h105v-690h-105v690z" />
    <glyph glyph-name="J" unicode="J" horiz-adv-x="594" 
d="M517 690v-436q0 -72 -20 -122t-54.5 -81.5t-80 -46t-96.5 -14.5q-52 0 -96.5 15.5t-77.5 47.5t-51.5 80t-18.5 113h104q0 -45 11.5 -76t31 -50.5t45 -28.5t54.5 -9q31 0 57.5 9t45.5 30t30 56t11 87v426h105z" />
    <glyph glyph-name="K" unicode="K" horiz-adv-x="666" 
d="M530 0l-341 340v-340h-105v690h105v-321l340 321h134l-354 -332l363 -358h-142z" />
    <glyph glyph-name="L" unicode="L" horiz-adv-x="584" 
d="M568 91v-91h-484v690h105v-599h379z" />
    <glyph glyph-name="M" unicode="M" horiz-adv-x="898" 
d="M227 444q-13 32 -26 73t-24 74q2 -34 3.5 -77t1.5 -79l1 -435h-99v690h143l187 -474q12 -29 22 -61.5t18 -55.5q8 24 18 56t21 61l185 474h136v-690h-99v435q0 32 1.5 70.5t3.5 70.5q-10 -31 -22.5 -67.5t-23.5 -64.5l-178 -444h-94z" />
    <glyph glyph-name="N" unicode="N" horiz-adv-x="765" 
d="M681 690v-690h-127l-303 457q-19 29 -38.5 62t-34.5 61q2 -32 3.5 -71t1.5 -73l2 -436h-101v690h127l302 -454q20 -30 40 -64t36 -63q-2 33 -4.5 74t-2.5 78l-2 429h101z" />
    <glyph glyph-name="O" unicode="O" horiz-adv-x="784" 
d="M740 348q0 -85 -28 -151.5t-76.5 -112.5t-112.5 -70t-136 -24q-71 0 -134 23t-109.5 68t-73.5 111t-27 153q0 85 28 151t76 111.5t112 69t136 23.5t134.5 -23.5t109.5 -68.5t74 -110.5t27 -149.5zM632 344q0 66 -19.5 115.5t-52.5 82.5t-76.5 49.5t-91.5 16.5t-91.5 -16
t-76.5 -48.5t-52.5 -82t-19.5 -115.5t19.5 -115.5t52.5 -82.5t76.5 -49.5t91.5 -16.5t91.5 16t76.5 48.5t52.5 82t19.5 115.5z" />
    <glyph glyph-name="P" unicode="P" horiz-adv-x="687" 
d="M399 690q128 0 195 -52.5t67 -153.5q0 -103 -70 -158t-198 -55h-204v-271h-105v690h315zM389 362q78 0 121 27t43 91t-42.5 91.5t-121.5 27.5h-200v-237h200z" />
    <glyph glyph-name="Q" unicode="Q" horiz-adv-x="783" 
d="M569 54q45 6 92.5 9t91.5 0v-96l-366 23q-70 0 -132.5 23t-109.5 68t-74.5 111t-27.5 153q0 85 28.5 151t77 111.5t112.5 69t134 23.5q71 0 133.5 -23.5t109.5 -68.5t74.5 -110.5t27.5 -149.5q0 -42 -9 -84t-29 -80t-52.5 -71t-80.5 -59zM152 346q0 -67 19.5 -117
t52.5 -83t76.5 -49t90.5 -16q54 0 98.5 17.5t76 51t49 82.5t17.5 112q0 66 -19.5 115.5t-53 82.5t-77 49.5t-91.5 16.5q-47 0 -90.5 -16t-76.5 -48.5t-52.5 -82t-19.5 -115.5z" />
    <glyph glyph-name="R" unicode="R" horiz-adv-x="701" 
d="M631 107q6 -25 16.5 -51t22.5 -47v-9h-106q-14 20 -22 42.5t-13 40.5l-29 110q-12 50 -46 71t-95 21h-170v-285h-105v690h306q126 0 187.5 -50t61.5 -144q0 -60 -34.5 -103.5t-91.5 -65.5q32 -14 56.5 -44t38.5 -85zM380 373q69 0 110 27t41 89q0 61 -37.5 86t-113.5 25
h-191v-227h191z" />
    <glyph glyph-name="S" unicode="S" horiz-adv-x="668" 
d="M413 388q108 -17 160.5 -63.5t52.5 -134.5q0 -44 -18 -81t-54.5 -63.5t-91.5 -41.5t-129 -15q-151 0 -225 61t-74 164h106q0 -62 47.5 -99t144.5 -36q95 0 140.5 28t45.5 78q0 26 -10 44.5t-28.5 31t-44 20t-55.5 12.5l-111 17q-103 15 -156.5 61.5t-53.5 131.5
q0 41 16 77t49.5 62.5t84.5 42t121 15.5q71 0 123.5 -16.5t87 -46t52 -71t17.5 -92.5h-104q0 66 -46.5 102.5t-131.5 34.5q-83 -2 -122 -29.5t-39 -73.5q0 -49 34.5 -70t97.5 -31z" />
    <glyph glyph-name="T" unicode="T" horiz-adv-x="641" 
d="M627 599h-254v-599h-105v599h-254v91h613v-91z" />
    <glyph glyph-name="U" unicode="U" horiz-adv-x="737" 
d="M661 290q0 -79 -24 -135.5t-64.5 -93t-94 -54t-113.5 -17.5q-59 0 -111.5 16.5t-92 52t-62.5 92.5t-23 138v401h104v-389q0 -62 15.5 -103.5t41.5 -67t60 -36.5t71 -11t71 10.5t60 36t41.5 67t15.5 102.5v391h105v-400z" />
    <glyph glyph-name="V" unicode="V" horiz-adv-x="683" 
d="M5 690h113l155 -411q23 -60 42 -114t31 -87q11 33 30 87t40 113l151 412h108l-265 -690h-135z" />
    <glyph glyph-name="W" unicode="W" horiz-adv-x="996" 
d="M682 248q11 -41 21 -85.5t17 -76.5q8 32 18 77t21 86l121 441h102l-198 -690h-133l-116 440q-11 42 -21 84.5t-15 69.5q-5 -27 -14.5 -70t-20.5 -86l-113 -438h-133l-208 690h110l124 -441q11 -39 21.5 -84t18.5 -77q7 32 17 76.5t20 84.5l113 441h132z" />
    <glyph glyph-name="X" unicode="X" horiz-adv-x="662" 
d="M661 0h-131l-126 182q-24 35 -44 66t-31 48q-11 -17 -31.5 -48.5t-46.5 -67.5l-127 -180h-124l256 353l-242 337h132l113 -165q23 -33 43 -64.5t31 -48.5q11 16 31.5 48t43.5 66l115 164h125l-242 -334z" />
    <glyph glyph-name="Y" unicode="Y" horiz-adv-x="656" 
d="M381 289v-289h-105v286l-270 404h129l121 -187q23 -34 43 -68t31 -54q11 20 32 54t44 69l122 186h122z" />
    <glyph glyph-name="Z" unicode="Z" horiz-adv-x="637" 
d="M249 185q-23 -28 -45 -53.5t-39 -44.5q26 2 60.5 3t66.5 1h312v-91h-569v88l342 412q23 28 47.5 55.5t41.5 46.5q-26 -2 -61.5 -2.5t-73.5 -0.5h-286v91h552v-87z" />
    <glyph glyph-name="bracketleft" unicode="[" horiz-adv-x="397" 
d="M378 -88v-92h-296v930h291v-92h-192v-746h197z" />
    <glyph glyph-name="backslash" unicode="\" horiz-adv-x="464" 
d="M340 -10l-317 710h101l317 -710h-101z" />
    <glyph glyph-name="bracketright" unicode="]" horiz-adv-x="397" 
d="M315 -180h-296v92h197v746h-192v92h291v-930z" />
    <glyph glyph-name="asciicircum" unicode="^" horiz-adv-x="499" 
d="M463 399v-12h-95l-118 224l-119 -224h-95v12l169 311h90z" />
    <glyph glyph-name="underscore" unicode="_" horiz-adv-x="500" 
d="M500 -54v-82h-500v82h500z" />
    <glyph glyph-name="grave" unicode="`" horiz-adv-x="600" 
d="M165 730l121 -143v-12h-86l-150 143v12h115z" />
    <glyph glyph-name="a" unicode="a" horiz-adv-x="546" 
d="M478 108q0 -26 3.5 -51.5t10.5 -47.5v-9h-99q-7 18 -9.5 37.5t-4.5 39.5q-29 -40 -78.5 -63.5t-108.5 -23.5q-71 0 -111 36.5t-40 95.5t36.5 96t112.5 48l185 28v24q-1 49 -24 78t-79 29q-58 0 -83.5 -27.5t-25.5 -75.5h-101q0 85 54.5 136.5t157.5 51.5q102 0 152.5 -53
t50.5 -139zM213 67q23 0 47.5 7t47 20.5t40.5 35t28 49.5l-1 45l-156 -25q-41 -6 -58 -24.5t-17 -44.5q0 -28 18 -45.5t51 -17.5z" />
    <glyph glyph-name="b" unicode="b" horiz-adv-x="611" 
d="M348 510q45 0 85.5 -16.5t71 -49t48 -81t17.5 -113.5q0 -64 -18.5 -113t-50 -81.5t-73 -49t-88.5 -16.5q-54 0 -97.5 21.5t-69.5 61.5v-73h-99v750h102v-320q28 38 72.5 59t99.5 21zM320 81q27 0 52.5 9.5t46 29.5t32.5 52t12 77t-12 77.5t-32 53t-45 30t-52 9.5
q-51 0 -92 -31.5t-54 -85.5v-105q13 -54 53 -85t91 -31z" />
    <glyph glyph-name="c" unicode="c" horiz-adv-x="556" 
d="M288 -10q-53 0 -98.5 17t-78.5 50t-52 81.5t-19 110.5t19.5 110.5t53.5 82t79.5 51t96.5 17.5q47 0 88 -13t72 -38.5t49.5 -62t21.5 -83.5h-104q-6 58 -42 84.5t-86 26.5q-29 0 -54.5 -10t-45 -31t-30.5 -54t-11 -78q0 -44 11 -77t30 -54.5t44.5 -32.5t53.5 -11
q52 0 88.5 27t42.5 84h103q-3 -46 -21.5 -82.5t-49 -62t-71.5 -39t-90 -13.5z" />
    <glyph glyph-name="d" unicode="d" horiz-adv-x="611" 
d="M537 106q0 -23 3.5 -49t9.5 -48v-9h-99q-6 17 -9 35.5t-4 38.5q-28 -41 -73 -63t-102 -22q-46 0 -86.5 16.5t-70.5 49.5t-47.5 82t-17.5 113q0 65 18 113.5t49 81t72 49t87 16.5q53 0 96 -19t71 -55v314h103v-644zM289 80q51 0 91 30.5t54 82.5v113q-14 52 -54 82.5
t-91 30.5q-27 0 -52.5 -9.5t-45 -30t-31.5 -53t-12 -77.5t12 -77t31.5 -52.5t45 -30t52.5 -9.5z" />
    <glyph glyph-name="e" unicode="e" horiz-adv-x="564" 
d="M523 219h-375q2 -35 13.5 -62t30.5 -45.5t43 -28t51 -9.5q51 0 85 21.5t41 66.5h104q-8 -78 -69.5 -125t-161.5 -47q-52 0 -97 17t-78 50t-51.5 81.5t-18.5 111.5q0 62 20 110t54 81.5t79.5 51t95.5 17.5q52 0 95 -17t74 -50.5t48 -82.5t17 -114v-27zM287 424
q-51 0 -90 -31.5t-46 -96.5h262q-6 66 -39.5 97t-86.5 31z" />
    <glyph glyph-name="f" unicode="f" horiz-adv-x="359" 
d="M285 669q-79 0 -79 -90v-79h140v-88h-140v-412h-103v412h-75v88h75v87q0 85 44 129t124 44q21 0 42.5 -1.5t41.5 -6.5v-89q-31 6 -70 6z" />
    <glyph glyph-name="g" unicode="g" horiz-adv-x="540" 
d="M360 58q77 -8 116 -40t39 -94q0 -70 -64.5 -109.5t-191.5 -39.5q-121 0 -181.5 46.5t-60.5 127.5h104q0 -44 33.5 -70t108.5 -26t111 19t36 48q0 49 -74 55l-108 10q-53 5 -83.5 28.5t-30.5 69.5q0 23 8.5 41.5t22.5 34.5q-48 21 -78 62t-30 103q0 45 18 79.5t48 58.5
t70 36t84 12q41 0 72 -10h185v-86q-16 1 -36.5 3.5t-41.5 5.5q36 -39 36 -102q0 -43 -18 -77t-48 -57.5t-69.5 -36t-83.5 -12.5q-8 0 -16 0.5t-16 1.5q-18 -18 -18 -38q0 -16 13 -24t44 -11zM255 428q-23 0 -44 -6t-37 -18.5t-25.5 -32t-9.5 -46.5t9.5 -47t25.5 -33t37 -19
t44 -6q47 0 81 25t34 78t-34 79t-81 26z" />
    <glyph glyph-name="h" unicode="h" horiz-adv-x="593" 
d="M340 510q94 0 139.5 -55.5t45.5 -146.5v-308h-102v298q0 121 -112 121q-50 0 -86 -31.5t-49 -85.5v-302h-102v750h102v-320q26 38 68 59t96 21z" />
    <glyph glyph-name="i" unicode="i" horiz-adv-x="250" 
d="M55 658q0 31 20.5 47.5t49.5 16.5t49.5 -16.5t20.5 -47.5t-20.5 -47.5t-49.5 -16.5t-49.5 16.5t-20.5 47.5zM74 500h102v-500h-102v500z" />
    <glyph glyph-name="j" unicode="j" horiz-adv-x="258" 
d="M62 658q0 31 20.5 47.5t50.5 16.5q29 0 49.5 -16.5t20.5 -47.5t-20.5 -47.5t-49.5 -16.5q-30 0 -50.5 16.5t-20.5 47.5zM184 -79q0 -72 -39 -108.5t-112 -36.5q-16 0 -34 2t-32 5v89q25 -5 53 -5q29 0 45.5 16t16.5 50v567h102v-579z" />
    <glyph glyph-name="k" unicode="k" horiz-adv-x="537" 
d="M408 0l-232 262v-262h-102v750h102v-479l224 229h131l-231 -231l239 -269h-131z" />
    <glyph glyph-name="l" unicode="l" horiz-adv-x="250" 
d="M74 750h102v-750h-102v750z" />
    <glyph glyph-name="m" unicode="m" horiz-adv-x="878" 
d="M643 510q85 0 126.5 -52.5t41.5 -140.5v-317h-103v307q0 112 -97 112q-42 0 -72 -30t-44 -78v-311h-103v307q0 57 -25 84.5t-73 27.5q-44 0 -74 -30.5t-44 -80.5v-308h-102v500h99v-71q24 38 63 59.5t89 21.5q58 0 94.5 -25t55.5 -70q24 45 68 70t100 25z" />
    <glyph glyph-name="n" unicode="n" horiz-adv-x="597" 
d="M344 510q95 0 140 -55t45 -144v-311h-103v300q0 119 -112 119q-51 0 -88 -31.5t-50 -85.5v-302h-102v500h99v-75q26 41 70 63t101 22z" />
    <glyph glyph-name="o" unicode="o" horiz-adv-x="592" 
d="M552 252q0 -62 -21 -110.5t-56.5 -82.5t-82.5 -51.5t-99 -17.5t-98 17t-80.5 50t-55 81.5t-20.5 111.5q0 62 21 110.5t57 81.5t83 50.5t99 17.5t98 -17t80.5 -50t54.5 -81t20 -110zM445 249q0 43 -12 75t-32.5 53t-47.5 31.5t-57 10.5t-57 -10.5t-47.5 -31.5t-33 -52.5
t-12.5 -73.5q0 -43 12.5 -75t33 -53t47.5 -31.5t57 -10.5t57 10.5t47.5 31.5t32.5 52.5t12 73.5z" />
    <glyph glyph-name="p" unicode="p" horiz-adv-x="611" 
d="M348 510q45 0 85.5 -16.5t70.5 -49t48 -81t18 -113.5q0 -64 -18.5 -113t-49.5 -81.5t-72 -49t-87 -16.5q-55 0 -97.5 19.5t-69.5 55.5v-279h-102v714h99v-76q27 41 72.5 63.5t102.5 22.5zM320 81q27 0 53 9.5t46 30t32 53t12 77.5t-12 77t-32 52t-45 29.5t-52 9.5
q-51 0 -92 -31t-54 -85v-110q13 -50 53 -81t91 -31z" />
    <glyph glyph-name="q" unicode="q" horiz-adv-x="611" 
d="M537 500v-714h-103v285q-29 -39 -74 -60t-101 -21q-45 0 -85 16.5t-69.5 49t-46.5 81.5t-17 113q0 65 18.5 113.5t50 81.5t72.5 49.5t87 16.5q55 0 98.5 -21.5t69.5 -59.5v70h100zM288 81q51 0 91.5 30.5t54.5 82.5v113q-14 52 -52.5 82.5t-89.5 30.5q-27 0 -53 -9.5
t-46.5 -30t-32.5 -52.5t-12 -77t11.5 -77.5t31 -53t45 -30t52.5 -9.5z" />
    <glyph glyph-name="r" unicode="r" horiz-adv-x="363" 
d="M314 510h17t16 -1v-102q-11 2 -24.5 2.5t-25.5 0.5q-42 0 -75 -31.5t-46 -94.5v-284h-102v500h99v-77q23 42 59.5 64.5t81.5 22.5z" />
    <glyph glyph-name="s" unicode="s" horiz-adv-x="516" 
d="M318 290q84 -11 121.5 -48.5t37.5 -98.5q0 -31 -13 -59t-40 -49t-68.5 -33t-98.5 -12q-58 0 -100 13.5t-69 37t-40 56.5t-13 72h103q0 -42 29 -70t91 -28q58 1 86.5 18t28.5 48q0 30 -21 45.5t-62 20.5l-86 11q-79 9 -116.5 46.5t-37.5 97.5q0 31 12 58.5t37.5 48.5
t64 33t91.5 12q54 0 94 -13.5t66 -37.5t38.5 -57t12.5 -71h-101q0 47 -28.5 73t-85.5 25q-54 -2 -77 -20t-23 -47q0 -26 19.5 -40.5t64.5 -20.5z" />
    <glyph glyph-name="t" unicode="t" horiz-adv-x="368" 
d="M272 80q20 0 40.5 2t36.5 7v-87q-20 -6 -46 -9t-53 -3q-72 0 -112.5 38t-40.5 123v261h-75v88h75v148h103v-148h142v-88h-142v-252q0 -42 17 -61t55 -19z" />
    <glyph glyph-name="u" unicode="u" horiz-adv-x="592" 
d="M518 106q0 -23 3.5 -49t10.5 -48v-9h-100q-6 17 -9 37t-4 40q-27 -41 -71 -64t-101 -23q-90 0 -134.5 52.5t-44.5 141.5v316h102v-304q0 -115 108 -115q49 0 86 30.5t51 82.5v306h103v-394z" />
    <glyph glyph-name="v" unicode="v" horiz-adv-x="531" 
d="M122 500l100 -282q5 -14 11 -32.5t12 -37.5t12 -37l11 -33q5 15 10.5 33t12 37.5l12.5 37.5t12 33l100 281h108l-195 -500h-124l-195 500h113z" />
    <glyph glyph-name="w" unicode="w" horiz-adv-x="815" 
d="M553 213l17 -68t15 -61q5 24 14.5 61t19.5 69l84 286h101l-162 -500h-121l-90 320q-7 26 -13.5 52.5t-10.5 46.5q-5 -20 -11 -46.5t-13 -52.5l-88 -320h-123l-161 500h105l85 -287q9 -30 18.5 -67t15.5 -62q5 25 14 61.5t18 68.5l77 286h129z" />
    <glyph glyph-name="x" unicode="x" horiz-adv-x="533" 
d="M527 0h-128l-79 117q-17 24 -32 48.5t-23 39.5q-9 -14 -24 -38.5t-32 -48.5l-81 -118h-121l189 258l-178 242h128l73 -104q14 -20 27.5 -42t21.5 -37q8 13 21 34.5t29 44.5l73 104h122l-177 -237z" />
    <glyph glyph-name="y" unicode="y" horiz-adv-x="530" 
d="M522 500l-203 -500l-55 -120q-13 -27 -27 -47t-33 -32.5t-43.5 -18.5t-58.5 -6q-14 0 -30 1.5t-29 3.5v81q27 -5 50 -5q30 0 51.5 11.5t35.5 43.5l36 78l-209 510h113l97 -261q6 -16 13 -36t13.5 -40t13 -39.5t11.5 -35.5q11 32 25.5 76t26.5 76l95 260h107z" />
    <glyph glyph-name="z" unicode="z" horiz-adv-x="494" 
d="M241 169q-16 -19 -38 -44t-37 -42q23 1 56 2t57 1h180v-86h-422v76l203 250q17 20 40.5 46.5t40.5 44.5q-26 -1 -62.5 -2t-62.5 -1h-151v86h406v-76z" />
    <glyph glyph-name="braceleft" unicode="{" horiz-adv-x="404" 
d="M218 -16q0 -35 14 -53.5t51 -18.5h99v-92h-127q-70 0 -103 40.5t-33 100.5v207q0 41 -21 55.5t-52 14.5h-29v95h29q31 0 52 14.5t21 55.5v206q0 60 33 100.5t103 40.5h127v-97h-99q-37 0 -51 -18.5t-14 -53.5v-200q0 -33 -14 -59.5t-43 -36.5q29 -9 43 -35.5t14 -59.5
v-206z" />
    <glyph glyph-name="bar" unicode="|" horiz-adv-x="261" 
d="M82 780h97v-1046h-97v1046z" />
    <glyph glyph-name="braceright" unicode="}" horiz-adv-x="404" 
d="M186 190q0 33 14 59.5t43 35.5q-29 10 -43 36.5t-14 59.5v200q0 35 -14 53.5t-51 18.5h-98v97h127q70 0 102.5 -40.5t32.5 -100.5v-206q0 -41 21 -55.5t52 -14.5h29v-95h-29q-31 0 -52 -14.5t-21 -55.5v-207q0 -60 -32.5 -100.5t-102.5 -40.5h-127v92h98q37 0 51 18.5
t14 53.5v206z" />
    <glyph glyph-name="asciitilde" unicode="~" horiz-adv-x="585" 
d="M62 212q0 83 38 120.5t95 37.5q31 0 56.5 -10.5t47.5 -23t42 -23t40 -10.5q24 0 40.5 16t16.5 50h88q0 -42 -11 -72t-29 -49t-42 -28t-50 -9q-30 0 -54.5 10.5t-47 23t-43.5 23t-43 10.5q-56 0 -56 -66h-88z" />
    <glyph glyph-name="exclamdown" unicode="&#xa1;" horiz-adv-x="267" 
d="M68 637q0 30 19.5 46.5t46.5 16.5q26 0 45.5 -16.5t19.5 -46.5t-19.5 -46.5t-45.5 -16.5q-27 0 -46.5 16.5t-19.5 46.5zM87 473h94l10 -473h-115z" />
    <glyph glyph-name="cent" unicode="&#xa2;" horiz-adv-x="553" 
d="M285 169q54 0 93 27t45 86h97q-3 -40 -18 -73.5t-40 -58t-59 -40.5t-73 -22v-116h-84v115q-45 6 -83 25.5t-65 52t-42.5 77.5t-15.5 102q0 55 16 99.5t43.5 77.5t65.5 53.5t81 27.5v116h84v-116q80 -10 132.5 -60t57.5 -134h-97q-6 60 -43.5 86.5t-90.5 26.5
q-30 0 -57.5 -10t-47.5 -31.5t-32 -54.5t-12 -79q0 -45 11.5 -78.5t31 -55t46 -32.5t56.5 -11z" />
    <glyph glyph-name="sterling" unicode="&#xa3;" horiz-adv-x="609" 
d="M181 87q14 1 31 2q15 1 34.5 1.5t43.5 0.5h276v-91h-518v93h18q22 0 31.5 15.5t9.5 40.5v162h-58v87h58v63q0 115 61.5 177t168.5 62q110 0 170.5 -56.5t60.5 -151.5h-104q0 55 -32 86t-92 31t-94.5 -34.5t-34.5 -115.5v-61h233v-87h-233v-139q0 -22 -4.5 -38t-10.5 -27
q-7 -12 -15 -20z" />
    <glyph glyph-name="currency" unicode="&#xa4;" horiz-adv-x="577" 
d="M500 333q0 -64 -33 -116l58 -59l-61 -61l-58 58q-26 -16 -55.5 -25t-62.5 -9q-66 0 -117 34l-58 -58l-61 61l57 57q-16 26 -25 55.5t-9 62.5t9 62.5t26 54.5l-58 58l61 61l58 -58q52 33 117 33q66 0 117 -34l59 59l61 -61l-59 -59q34 -51 34 -116zM288 202q27 0 50.5 10
t41 27.5t27 41.5t9.5 52q0 27 -9.5 51t-27 41.5t-41 27.5t-50.5 10q-28 0 -51.5 -10t-40.5 -27.5t-26.5 -41.5t-9.5 -51q0 -28 9.5 -52t26.5 -41.5t40.5 -27.5t51.5 -10z" />
    <glyph glyph-name="yen" unicode="&#xa5;" horiz-adv-x="642" 
d="M413 382h144v-77h-183v-90h183v-77h-183v-138h-105v138h-183v77h183v90h-183v77h142l-200 308h129l116 -195q14 -24 27.5 -48l22.5 -40q8 16 22 40l28 48l119 195h122z" />
    <glyph glyph-name="brokenbar" unicode="&#xa6;" horiz-adv-x="261" 
d="M82 780h97v-410h-97v410zM82 160h97v-426h-97v426z" />
    <glyph glyph-name="section" unicode="&#xa7;" horiz-adv-x="662" 
d="M515 118q42 -20 72 -56t30 -96q0 -46 -21 -81.5t-59 -59.5t-91 -36.5t-118 -12.5q-73 0 -128.5 16.5t-93 45.5t-56.5 70t-19 90h103q0 -64 49.5 -100.5t145.5 -36.5q80 0 130 24.5t50 77.5q0 48 -39 70.5t-105 28.5l-110 11q-101 10 -151.5 50.5t-50.5 108.5q0 52 27 91
t75 62q-42 23 -61 55.5t-19 77.5q0 40 16.5 73.5t48.5 57.5t78.5 37.5t105.5 13.5q64 0 112.5 -16t81 -44.5t49 -67.5t16.5 -85h-103q0 60 -40.5 94t-118.5 34q-60 0 -100 -22.5t-40 -68.5q0 -24 10.5 -39.5t29.5 -26t44 -16.5t55 -10l87 -11q106 -14 150 -58.5t44 -110.5
q0 -45 -23.5 -78.5t-62.5 -55.5zM159 249q0 -24 11.5 -40t31 -26.5t45.5 -16t55 -8.5l101 -10q3 0 6 -0.5t6 -0.5q35 13 57 35.5t22 57.5q0 26 -12.5 43t-32.5 28t-44.5 17t-49.5 9l-49 6q-17 2 -33.5 5t-31.5 6q-39 -17 -60.5 -44.5t-21.5 -60.5z" />
    <glyph glyph-name="dieresis" unicode="&#xa8;" horiz-adv-x="600" 
d="M77 658q0 31 20.5 47.5t46.5 16.5t46 -16.5t20 -47.5q0 -32 -20 -48t-46 -16t-46.5 16t-20.5 48zM296 658q0 31 20.5 47.5t46.5 16.5t46 -16.5t20 -47.5q0 -32 -20 -48t-46 -16t-46.5 16t-20.5 48z" />
    <glyph glyph-name="copyright" unicode="&#xa9;" horiz-adv-x="780" 
d="M737 348q0 -85 -28.5 -151.5t-77.5 -112.5t-112.5 -70t-134.5 -24q-69 0 -131 23t-108.5 68t-74 111t-27.5 153q0 85 28.5 151t77 111.5t112 69t133.5 23.5q69 0 131.5 -23.5t109.5 -68.5t74.5 -110.5t27.5 -149.5zM662 344q0 72 -22.5 125t-60 88.5t-86.5 53t-102 17.5
t-102 -17t-87 -52t-60.5 -88t-22.5 -125t22 -125.5t59.5 -88.5t86 -52.5t101.5 -17.5t102.5 17t87.5 51.5t61 88t23 125.5zM557 288q-3 -32 -17.5 -57t-37.5 -42.5t-53 -26.5t-63 -9q-37 0 -70 12.5t-58 36.5t-40 60t-15 83q0 46 15 82t40 60.5t58.5 37t70.5 12.5
q35 0 65 -9t52.5 -26t36.5 -42.5t17 -57.5h-77q-5 35 -31.5 52t-64.5 17q-43 0 -74.5 -30.5t-31.5 -94.5q0 -32 9 -56t24 -39.5t34.5 -23.5t40.5 -8q38 0 64 17t30 52h76z" />
    <glyph glyph-name="ordfeminine" unicode="&#xaa;" horiz-adv-x="462" 
d="M396 377q0 -19 3 -40.5t8 -38.5v-8h-86q-5 14 -7.5 29t-3.5 31q-23 -31 -61.5 -49.5t-85.5 -18.5q-57 0 -89 29.5t-32 76.5q0 45 28.5 76t93.5 41l142 21v18q0 37 -18 59t-59 22q-42 0 -62 -20t-20 -57h-86q0 67 44 108.5t126 41.5q84 0 124 -43.5t40 -111.5zM183 347
q35 0 71.5 21.5t52.5 63.5l-1 36l-117 -19q-31 -5 -44.5 -19t-13.5 -35t13.5 -34.5t38.5 -13.5z" />
    <glyph glyph-name="guillemotleft" unicode="&#xab;" horiz-adv-x="558" 
d="M278 453l-142 -201l142 -201h-115l-121 166v70l121 166h115zM378 252l142 -201h-116l-120 166v70l120 166h116z" />
    <glyph glyph-name="registered" unicode="&#xae;" horiz-adv-x="780" 
d="M394 700q69 0 131.5 -23.5t109.5 -68.5t74.5 -110.5t27.5 -149.5q0 -85 -28.5 -151.5t-77.5 -112.5t-112.5 -70t-134.5 -24q-69 0 -131 23t-108.5 68t-74 111t-27.5 153q0 85 28.5 151t77 111.5t112 69t133.5 23.5zM388 62q53 0 102.5 17t87.5 51.5t61 88t23 125.5
t-22.5 125t-60 88.5t-86.5 53t-102 17.5t-102 -17t-87 -52t-60.5 -88t-22.5 -125t22 -125.5t59.5 -88.5t86 -52.5t101.5 -17.5zM546 216q8 -28 21 -50v-6h-74q-8 11 -12.5 23.5t-7.5 22.5l-13 43q-8 26 -25.5 36t-55.5 10h-65v-135h-75v367h173q137 0 137 -108
q0 -35 -18.5 -58.5t-49.5 -35.5q17 -7 31 -23t23 -47zM395 359q35 0 56.5 11.5t21.5 40.5q0 28 -20.5 40t-60.5 12h-78v-104h81z" />
    <glyph glyph-name="macron" unicode="&#xaf;" horiz-adv-x="600" 
d="M359 683v-81h-309v81h309z" />
    <glyph glyph-name="degree" unicode="&#xb0;" horiz-adv-x="413" 
d="M207 378q-36 0 -67 12t-53.5 33.5t-35.5 51.5t-13 66t13 66t35.5 51.5t53.5 33t67 11.5q35 0 66 -11.5t53.5 -33t35.5 -51.5t13 -66t-13 -66t-35.5 -51.5t-53.5 -33.5t-66 -12zM207 460q32 0 54.5 21.5t22.5 59.5t-22.5 59t-54.5 21q-33 0 -56 -21t-23 -59t23 -59.5
t56 -21.5z" />
    <glyph glyph-name="plusminus" unicode="&#xb1;" horiz-adv-x="534" 
d="M480 395v-88h-164v-169h-97v169h-165v88h165v169h97v-169h164zM54 88h426v-88h-426v88z" />
    <glyph glyph-name="acute" unicode="&#xb4;" horiz-adv-x="600" 
d="M286 718l-150 -143h-86v12l122 143h114v-12z" />
    <glyph glyph-name="paragraph" unicode="&#xb6;" horiz-adv-x="682" 
d="M588 -214h-87v818h-90v-818h-87v477h-44q-121 0 -187 56.5t-66 162.5q0 102 63 155t184 53h314v-904z" />
    <glyph glyph-name="periodcentered" unicode="&#xb7;" horiz-adv-x="245" 
d="M55 333q0 31 20 47.5t47 16.5t47 -16.5t20 -47.5q0 -32 -20 -48t-47 -16t-47 16t-20 48z" />
    <glyph glyph-name="cedilla" unicode="&#xb8;" horiz-adv-x="600" 
d="M187 -41q38 -1 66 -22.5t28 -63.5q0 -44 -29.5 -70.5t-89.5 -26.5q-32 0 -54.5 7.5t-36.5 20t-20 28t-6 30.5h72q0 -13 13 -21.5t33 -8.5q18 0 32.5 8.5t14.5 28.5q0 17 -11.5 27t-30.5 10q-5 0 -11 -0.5t-10 -2.5l-46 29l29 80l74 1z" />
    <glyph glyph-name="ordmasculine" unicode="&#xba;" horiz-adv-x="490" 
d="M452 492q0 -49 -17 -88t-45.5 -66t-66.5 -41.5t-80 -14.5t-79.5 13.5t-65.5 40t-44 65t-16 89.5q0 50 17 88.5t45.5 65t67 40.5t80.5 14t79 -14t65 -40t44 -64.5t16 -87.5zM360 489q0 65 -34 97.5t-80 32.5q-47 0 -81.5 -31.5t-34.5 -96.5q0 -33 9.5 -57t25.5 -40.5
t37 -24.5t44 -8q46 0 80 32t34 96z" />
    <glyph glyph-name="guillemotright" unicode="&#xbb;" horiz-adv-x="558" 
d="M154 453l121 -166v-70l-121 -166h-115l142 202l-142 200h115zM516 287v-70l-121 -166h-115l142 201l-142 201h115z" />
    <glyph glyph-name="onequarter" unicode="&#xbc;" horiz-adv-x="822" 
d="M640 700l-417 -710h-99l417 710h99zM122 276v304q-43 -30 -93 -49v84q29 14 58.5 33t59.5 42h68v-414h-93zM791 153v-74h-56v-79h-93v79h-214l1 76l197 259h109v-261h56zM642 262q0 12 0.5 29t1.5 33q-8 -13 -17 -26t-17 -22l-63 -83q-7 -9 -15.5 -20.5t-16.5 -20.5
q13 0 27.5 0.5t25.5 0.5h74v109z" />
    <glyph glyph-name="onehalf" unicode="&#xbd;" horiz-adv-x="863" 
d="M638 700l-416 -710h-99l416 710h99zM122 276v304q-43 -30 -93 -49v84q29 14 58.5 33t59.5 42h68v-414h-93zM827 77v-77h-329v65l164 137q28 23 43 42t15 43t-15.5 40t-44.5 16q-32 0 -49 -20.5t-17 -54.5h-91q0 69 44.5 110.5t116.5 41.5t112 -35t40 -91q0 -30 -13 -57
t-37.5 -53t-59 -52.5t-76.5 -56.5q14 1 31.5 1.5t36.5 0.5h129z" />
    <glyph glyph-name="threequarters" unicode="&#xbe;" horiz-adv-x="925" 
d="M753 700l-417 -710h-99l417 710h99zM371 391q0 -54 -46 -87.5t-124 -33.5q-81 0 -125 37.5t-44 103.5h95q0 -32 19.5 -48.5t54.5 -16.5q33 0 52.5 14.5t19.5 40.5q0 27 -18.5 40t-47.5 13h-59v63h59q26 0 42 13.5t16 36.5q0 22 -15 38t-47 16q-34 0 -50 -18t-16 -47h-93
q0 66 43 103t119 37q72 0 111.5 -33t39.5 -81q0 -31 -17 -54.5t-46 -36.5q39 -11 58 -37t19 -63zM895 153v-74h-55v-79h-93v79h-214v76l197 259h110v-261h55zM747 262q0 12 0.5 29t1.5 33l-18 -26t-17 -22l-63 -83q-7 -9 -15.5 -20.5t-16.5 -20.5q13 0 27.5 0.5t25.5 0.5h75
v109z" />
    <glyph glyph-name="questiondown" unicode="&#xbf;" horiz-adv-x="565" 
d="M352 636q0 -31 -20.5 -47.5t-49.5 -16.5q-30 0 -50.5 16.5t-20.5 47.5t20.5 47.5t50.5 16.5q29 0 49.5 -16.5t20.5 -47.5zM138 183q0 -48 34.5 -77t103.5 -31q76 -2 118 36t42 108h101q0 -50 -16.5 -92t-49.5 -72.5t-82 -47.5t-114 -17q-61 0 -106.5 16.5t-75.5 44
t-44.5 63.5t-14.5 75q0 37 10 65.5t27.5 51.5t40.5 41.5t48 34.5q36 23 52.5 51t16.5 82l104 -1q0 -39 -5 -69t-17 -54t-33.5 -44t-54.5 -39q-41 -25 -63 -52.5t-22 -72.5z" />
    <glyph glyph-name="Agrave" unicode="&#xc0;" horiz-adv-x="699" 
d="M310 754l-151 123v12h115l122 -123v-12h-86zM510 185h-324l-71 -185h-109l276 690h132l282 -690h-114zM477 271l-65 167q-19 47 -36 94t-28 77q-11 -30 -28.5 -77t-35.5 -94l-64 -167h257z" />
    <glyph glyph-name="Aacute" unicode="&#xc1;" horiz-adv-x="699" 
d="M394 754h-86v12l122 123h114v-12zM510 185h-324l-71 -185h-109l276 690h132l282 -690h-114zM477 271l-65 167q-19 47 -36 94t-28 77q-11 -30 -28.5 -77t-35.5 -94l-64 -167h257z" />
    <glyph glyph-name="Acircumflex" unicode="&#xc2;" horiz-adv-x="699" 
d="M283 754h-90v12l116 123h85l116 -123v-12h-91l-68 65zM510 185h-324l-71 -185h-109l276 690h132l282 -690h-114zM477 271l-65 167q-19 47 -36 94t-28 77q-11 -30 -28.5 -77t-35.5 -94l-64 -167h257z" />
    <glyph glyph-name="Atilde" unicode="&#xc3;" horiz-adv-x="699" 
d="M290 809q-42 0 -42 -49h-74q0 68 29.5 97t74.5 29q26 0 46 -8t36 -18t29 -18t26 -8q42 0 42 49h75q0 -68 -29.5 -96.5t-74.5 -28.5q-25 0 -44 8t-35.5 17.5t-30.5 17.5t-28 8zM510 185h-324l-71 -185h-109l276 690h132l282 -690h-114zM477 271l-65 167q-19 47 -36 94
t-28 77q-11 -30 -28.5 -77t-35.5 -94l-64 -167h257z" />
    <glyph glyph-name="Adieresis" unicode="&#xc4;" horiz-adv-x="699" 
d="M242 757q-26 0 -46.5 16t-20.5 48q0 31 20.5 47.5t46.5 16.5t46 -16.5t20 -47.5q0 -32 -20 -48t-46 -16zM461 757q-26 0 -46.5 16t-20.5 48q0 31 20.5 47.5t46.5 16.5t46 -16.5t20 -47.5q0 -32 -20 -48t-46 -16zM510 185h-324l-71 -185h-109l276 690h132l282 -690h-114z
M477 271l-65 167q-19 47 -36 94t-28 77q-11 -30 -28.5 -77t-35.5 -94l-64 -167h257z" />
    <glyph glyph-name="Aring" unicode="&#xc5;" horiz-adv-x="699" 
d="M510 185h-324l-71 -185h-109l273 682q-53 33 -53 100q0 53 33.5 86t92.5 33q57 0 90.5 -33t33.5 -86q0 -35 -15 -61.5t-42 -41.5l277 -679h-114zM352 836q-25 0 -39.5 -15t-14.5 -39q0 -23 14.5 -38.5t39.5 -15.5q23 0 37.5 15.5t14.5 38.5q0 24 -14.5 39t-37.5 15z
M477 271l-65 167q-19 47 -36 94t-28 77q-11 -30 -28.5 -77t-35.5 -94l-64 -167h257z" />
    <glyph glyph-name="AE" unicode="&#xc6;" horiz-adv-x="1069" 
d="M1023 91v-91h-498v218h-263l-154 -218h-120l488 690h542v-91h-388v-198h346v-89h-346v-221h393zM525 303v291q-17 -26 -35 -53.5t-38 -54.5l-130 -183h203z" />
    <glyph glyph-name="Ccedilla" unicode="&#xc7;" horiz-adv-x="720" 
d="M684 243q-5 -53 -26.5 -96t-56 -75t-79 -51.5t-95.5 -26.5l-11 -35q38 -1 66 -22.5t28 -63.5q0 -44 -29.5 -70.5t-90.5 -26.5q-32 0 -54 7.5t-36 20t-20 28t-6 30.5h72q0 -13 12.5 -21.5t32.5 -8.5q19 0 33.5 8.5t14.5 28.5q0 17 -11.5 27t-30.5 10q-13 0 -21 -3l-46 29
l21 59q-63 3 -119 27.5t-98 69.5t-66.5 109.5t-24.5 147.5q0 85 27.5 151t73.5 111.5t106.5 69t126.5 23.5q60 0 114 -16.5t95.5 -49t67 -79.5t29.5 -108h-106q-4 41 -22 71t-45.5 50t-62.5 30t-73 10q-43 0 -83.5 -16t-71 -48.5t-49 -82t-18.5 -115.5t18.5 -115.5
t49.5 -82.5t71.5 -49.5t83.5 -16.5q39 0 74 10t61.5 30t44 50.5t22.5 70.5h107z" />
    <glyph glyph-name="Egrave" unicode="&#xc8;" horiz-adv-x="628" 
d="M294 754l-150 123v12h114l122 -123v-12h-86zM582 91v-91h-498v690h493v-91h-388v-198h346v-89h-346v-221h393z" />
    <glyph glyph-name="Eacute" unicode="&#xc9;" horiz-adv-x="628" 
d="M378 754h-86v12l122 123h115v-12zM582 91v-91h-498v690h493v-91h-388v-198h346v-89h-346v-221h393z" />
    <glyph glyph-name="Ecircumflex" unicode="&#xca;" horiz-adv-x="628" 
d="M267 754h-90v12l116 123h85l116 -123v-12h-90l-68 65zM582 91v-91h-498v690h493v-91h-388v-198h346v-89h-346v-221h393z" />
    <glyph glyph-name="Edieresis" unicode="&#xcb;" horiz-adv-x="628" 
d="M226 757q-26 0 -46 16t-20 48q0 31 20 47.5t46 16.5t46 -16.5t20 -47.5q0 -32 -20 -48t-46 -16zM445 757q-26 0 -46 16t-20 48q0 31 20 47.5t46 16.5t46 -16.5t20 -47.5q0 -32 -20 -48t-46 -16zM582 91v-91h-498v690h493v-91h-388v-198h346v-89h-346v-221h393z" />
    <glyph glyph-name="Igrave" unicode="&#xcc;" horiz-adv-x="273" 
d="M181 754h-86l-150 123v12h114l122 -123v-12zM84 690h105v-690h-105v690z" />
    <glyph glyph-name="Iacute" unicode="&#xcd;" horiz-adv-x="273" 
d="M330 877l-150 -123h-86v12l121 123h115v-12zM84 690h105v-690h-105v690z" />
    <glyph glyph-name="Icircumflex" unicode="&#xce;" horiz-adv-x="273" 
d="M269 766v-12h-87l-46 62l-46 -62h-85v12l93 123h77zM84 690h105v-690h-105v690z" />
    <glyph glyph-name="Idieresis" unicode="&#xcf;" horiz-adv-x="273" 
d="M-15 822q0 31 18.5 47.5t44.5 16.5q25 0 44 -16.5t19 -47.5t-19 -47.5t-44 -16.5q-26 0 -44.5 16.5t-18.5 47.5zM164 822q0 31 19 47.5t44 16.5t44 -16.5t19 -47.5t-19 -47.5t-44 -16.5t-44 16.5t-19 47.5zM84 690h105v-690h-105v690z" />
    <glyph glyph-name="Eth" unicode="&#xd0;" horiz-adv-x="741" 
d="M374 690q71 0 130 -22.5t101.5 -66t66.5 -107.5t24 -147t-25 -147.5t-69 -109t-104 -67.5t-131 -23h-276v302h-65v88h65v300h283zM367 91q47 0 87.5 15t70 46.5t46.5 79.5t17 113t-17 112.5t-46.5 79t-70 47t-87.5 15.5h-171v-209h132v-88h-132v-211h171z" />
    <glyph glyph-name="Ntilde" unicode="&#xd1;" horiz-adv-x="765" 
d="M204 760q0 68 30.5 97t73.5 29q26 0 46 -8t36 -18t29.5 -18t26.5 -8q42 0 42 49h75q0 -67 -30.5 -96t-74.5 -29q-25 0 -44 8t-35 17.5t-30 17.5t-29 8q-41 0 -41 -49h-75zM681 690v-690h-127l-303 457q-19 29 -38.5 62t-34.5 61q2 -32 3.5 -71t1.5 -73l2 -436h-101v690
h127l302 -454q20 -30 40 -64t36 -63q-2 33 -4.5 74t-2.5 78l-2 429h101z" />
    <glyph glyph-name="Ograve" unicode="&#xd2;" horiz-adv-x="784" 
d="M437 754h-86l-151 123v12h115l122 -123v-12zM740 348q0 -85 -28 -151.5t-76.5 -112.5t-112.5 -70t-136 -24q-71 0 -134 23t-109.5 68t-73.5 111t-27 153q0 85 28 151t76 111.5t112 69t136 23.5t134.5 -23.5t109.5 -68.5t74 -110.5t27 -149.5zM632 344q0 66 -19.5 115.5
t-52.5 82.5t-76.5 49.5t-91.5 16.5t-91.5 -16t-76.5 -48.5t-52.5 -82t-19.5 -115.5t19.5 -115.5t52.5 -82.5t76.5 -49.5t91.5 -16.5t91.5 16t76.5 48.5t52.5 82t19.5 115.5z" />
    <glyph glyph-name="Oacute" unicode="&#xd3;" horiz-adv-x="784" 
d="M585 877l-150 -123h-86v12l122 123h114v-12zM740 348q0 -85 -28 -151.5t-76.5 -112.5t-112.5 -70t-136 -24q-71 0 -134 23t-109.5 68t-73.5 111t-27 153q0 85 28 151t76 111.5t112 69t136 23.5t134.5 -23.5t109.5 -68.5t74 -110.5t27 -149.5zM632 344q0 66 -19.5 115.5
t-52.5 82.5t-76.5 49.5t-91.5 16.5t-91.5 -16t-76.5 -48.5t-52.5 -82t-19.5 -115.5t19.5 -115.5t52.5 -82.5t76.5 -49.5t91.5 -16.5t91.5 16t76.5 48.5t52.5 82t19.5 115.5z" />
    <glyph glyph-name="Ocircumflex" unicode="&#xd4;" horiz-adv-x="784" 
d="M327 754h-91v12l116 123h85l117 -123v-12h-91l-68 66zM395 700q72 0 134.5 -23.5t109.5 -68.5t74 -110.5t27 -149.5q0 -85 -28 -151.5t-76.5 -112.5t-112.5 -70t-136 -24q-71 0 -134 23t-109.5 68t-73.5 111t-27 153q0 85 28 151t76 111.5t112 69t136 23.5zM392 82
q48 0 91.5 16t76.5 48.5t52.5 82t19.5 115.5t-19.5 115.5t-52.5 82.5t-76.5 49.5t-91.5 16.5t-91.5 -16t-76.5 -48.5t-52.5 -82t-19.5 -115.5t19.5 -115.5t52.5 -82.5t76.5 -49.5t91.5 -16.5z" />
    <glyph glyph-name="Otilde" unicode="&#xd5;" horiz-adv-x="784" 
d="M214 760q0 68 30 97t75 29q26 0 46 -8t36 -18t29 -18t26 -8q42 0 42 49h75q0 -68 -29.5 -96.5t-74.5 -28.5q-25 0 -44 8t-35.5 17.5t-30.5 17.5t-28 8q-42 0 -42 -49h-75zM740 348q0 -85 -28 -151.5t-76.5 -112.5t-112.5 -70t-136 -24q-71 0 -134 23t-109.5 68t-73.5 111
t-27 153q0 85 28 151t76 111.5t112 69t136 23.5t134.5 -23.5t109.5 -68.5t74 -110.5t27 -149.5zM632 344q0 66 -19.5 115.5t-52.5 82.5t-76.5 49.5t-91.5 16.5t-91.5 -16t-76.5 -48.5t-52.5 -82t-19.5 -115.5t19.5 -115.5t52.5 -82.5t76.5 -49.5t91.5 -16.5t91.5 16
t76.5 48.5t52.5 82t19.5 115.5z" />
    <glyph glyph-name="Odieresis" unicode="&#xd6;" horiz-adv-x="784" 
d="M216 821q0 31 20.5 47.5t46.5 16.5t46 -16.5t20 -47.5q0 -32 -20 -48t-46 -16t-46.5 16t-20.5 48zM435 821q0 31 20.5 47.5t46.5 16.5t46 -16.5t20 -47.5q0 -32 -20 -48t-46 -16t-46.5 16t-20.5 48zM740 348q0 -85 -28 -151.5t-76.5 -112.5t-112.5 -70t-136 -24
q-71 0 -134 23t-109.5 68t-73.5 111t-27 153q0 85 28 151t76 111.5t112 69t136 23.5t134.5 -23.5t109.5 -68.5t74 -110.5t27 -149.5zM632 344q0 66 -19.5 115.5t-52.5 82.5t-76.5 49.5t-91.5 16.5t-91.5 -16t-76.5 -48.5t-52.5 -82t-19.5 -115.5t19.5 -115.5t52.5 -82.5
t76.5 -49.5t91.5 -16.5t91.5 16t76.5 48.5t52.5 82t19.5 115.5z" />
    <glyph glyph-name="multiply" unicode="&#xd7;" horiz-adv-x="537" 
d="M331 268l164 -164l-62 -62l-164 163l-164 -163l-63 62l164 164l-164 163l63 63l164 -164l164 164l62 -63z" />
    <glyph glyph-name="Oslash" unicode="&#xd8;" horiz-adv-x="797" 
d="M681 569q31 -43 48.5 -98t17.5 -123q0 -85 -28 -151.5t-76 -112.5t-112 -70t-136 -24q-63 0 -119.5 18t-101.5 53l-82 -82l-59 59l83 83q-31 43 -48 99t-17 125q0 85 28 151t76 111.5t111.5 69t135.5 23.5q63 0 119.5 -18.5t101.5 -53.5l78 78l59 -58zM159 346
q0 -45 9 -82t25 -66l358 358q-32 26 -70.5 39t-81.5 13q-48 0 -91.5 -16t-76.5 -48.5t-52.5 -82t-19.5 -115.5zM639 344q0 45 -9 82t-25 66l-359 -358q32 -26 71 -39t82 -13q48 0 91.5 16t76.5 48.5t52.5 82t19.5 115.5z" />
    <glyph glyph-name="Ugrave" unicode="&#xd9;" horiz-adv-x="737" 
d="M413 754h-86l-150 123v12h114l122 -123v-12zM661 290q0 -79 -24 -135.5t-64.5 -93t-94 -54t-113.5 -17.5q-59 0 -111.5 16.5t-92 52t-62.5 92.5t-23 138v401h104v-389q0 -62 15.5 -103.5t41.5 -67t60 -36.5t71 -11t71 10.5t60 36t41.5 67t15.5 102.5v391h105v-400z" />
    <glyph glyph-name="Uacute" unicode="&#xda;" horiz-adv-x="737" 
d="M562 877l-150 -123h-86v12l121 123h115v-12zM661 290q0 -79 -24 -135.5t-64.5 -93t-94 -54t-113.5 -17.5q-59 0 -111.5 16.5t-92 52t-62.5 92.5t-23 138v401h104v-389q0 -62 15.5 -103.5t41.5 -67t60 -36.5t71 -11t71 10.5t60 36t41.5 67t15.5 102.5v391h105v-400z" />
    <glyph glyph-name="Ucircumflex" unicode="&#xdb;" horiz-adv-x="737" 
d="M301 754h-91v12l116 123h85l117 -123v-12h-91l-68 66zM661 690v-400q0 -79 -24 -135.5t-64.5 -93t-94 -54t-113.5 -17.5q-59 0 -111.5 16.5t-92 52t-62.5 92.5t-23 138v401h104v-389q0 -62 15.5 -103.5t41.5 -67t60 -36.5t71 -11t71 10.5t60 36t41.5 67t15.5 102.5v391
h105z" />
    <glyph glyph-name="Udieresis" unicode="&#xdc;" horiz-adv-x="737" 
d="M193 821q0 31 20 47.5t46 16.5t46.5 -16.5t20.5 -47.5q0 -32 -20.5 -48t-46.5 -16t-46 16t-20 48zM412 821q0 31 20 47.5t46 16.5t46.5 -16.5t20.5 -47.5q0 -32 -20.5 -48t-46.5 -16t-46 16t-20 48zM661 290q0 -79 -24 -135.5t-64.5 -93t-94 -54t-113.5 -17.5
q-59 0 -111.5 16.5t-92 52t-62.5 92.5t-23 138v401h104v-389q0 -62 15.5 -103.5t41.5 -67t60 -36.5t71 -11t71 10.5t60 36t41.5 67t15.5 102.5v391h105v-400z" />
    <glyph glyph-name="Yacute" unicode="&#xdd;" horiz-adv-x="656" 
d="M372 754h-86v12l121 123h115v-12zM381 289v-289h-105v286l-270 404h129l121 -187q23 -34 43 -68t31 -54q11 20 32 54t44 69l122 186h122z" />
    <glyph glyph-name="Thorn" unicode="&#xde;" horiz-adv-x="686" 
d="M396 549q125 0 189.5 -51t64.5 -150q0 -100 -67.5 -154t-192.5 -54h-201v-140h-105v690h105v-141h207zM386 234q75 0 115.5 25t40.5 85t-39.5 86t-116.5 26h-197v-222h197z" />
    <glyph glyph-name="germandbls" unicode="&#xdf;" horiz-adv-x="616" 
d="M348 73q27 0 50.5 6.5t41 21t27.5 37.5t10 56q0 60 -34.5 95t-109.5 35h-53v84h41q48 0 72.5 31t24.5 73q0 47 -28.5 76.5t-90.5 29.5q-68 0 -97.5 -37.5t-29.5 -108.5v-472h-98v465q0 115 56.5 175t166.5 60q55 0 96.5 -13.5t69.5 -37t42 -55.5t14 -69q0 -45 -23 -83.5
t-64 -61.5q30 -7 56.5 -21t46.5 -36.5t31.5 -55t11.5 -75.5q0 -91 -58.5 -146.5t-165.5 -55.5q-34 0 -63.5 4t-56.5 12l1 84q26 -7 54.5 -12t58.5 -5z" />
    <glyph glyph-name="agrave" unicode="&#xe0;" horiz-adv-x="546" 
d="M232 575l-151 143v12h115l122 -143v-12h-86zM478 108q0 -26 3.5 -51.5t10.5 -47.5v-9h-99q-7 18 -9.5 37.5t-4.5 39.5q-29 -40 -78.5 -63.5t-108.5 -23.5q-71 0 -111 36.5t-40 95.5t36.5 96t112.5 48l185 28v24q-1 49 -24 78t-79 29q-58 0 -83.5 -27.5t-25.5 -75.5h-101
q0 85 54.5 136.5t157.5 51.5q102 0 152.5 -53t50.5 -139zM213 67q23 0 47.5 7t47 20.5t40.5 35t28 49.5l-1 45l-156 -25q-41 -6 -58 -24.5t-17 -44.5q0 -28 18 -45.5t51 -17.5z" />
    <glyph glyph-name="aacute" unicode="&#xe1;" horiz-adv-x="546" 
d="M314 575h-86v12l122 143h114v-12zM478 108q0 -26 3.5 -51.5t10.5 -47.5v-9h-99q-7 18 -9.5 37.5t-4.5 39.5q-29 -40 -78.5 -63.5t-108.5 -23.5q-71 0 -111 36.5t-40 95.5t36.5 96t112.5 48l185 28v24q-1 49 -24 78t-79 29q-58 0 -83.5 -27.5t-25.5 -75.5h-101
q0 85 54.5 136.5t157.5 51.5q102 0 152.5 -53t50.5 -139zM213 67q23 0 47.5 7t47 20.5t40.5 35t28 49.5l-1 45l-156 -25q-41 -6 -58 -24.5t-17 -44.5q0 -28 18 -45.5t51 -17.5z" />
    <glyph glyph-name="acircumflex" unicode="&#xe2;" horiz-adv-x="546" 
d="M200 575h-85v12l119 143h87l119 -143v-12h-88l-76 82zM478 108q0 -26 3.5 -51.5t10.5 -47.5v-9h-99q-7 18 -9.5 37.5t-4.5 39.5q-29 -40 -78.5 -63.5t-108.5 -23.5q-71 0 -111 36.5t-40 95.5t36.5 96t112.5 48l185 28v24q-1 49 -24 78t-79 29q-58 0 -83.5 -27.5
t-25.5 -75.5h-101q0 85 54.5 136.5t157.5 51.5q102 0 152.5 -53t50.5 -139zM213 67q23 0 47.5 7t47 20.5t40.5 35t28 49.5l-1 45l-156 -25q-41 -6 -58 -24.5t-17 -44.5q0 -28 18 -45.5t51 -17.5z" />
    <glyph glyph-name="atilde" unicode="&#xe3;" horiz-adv-x="546" 
d="M215 635q-21 0 -31 -12.5t-10 -41.5h-74q0 74 29.5 105t73.5 31q26 0 45.5 -9.5t35.5 -21.5t29 -21.5t25 -9.5q40 0 40 54h74q0 -74 -29 -105t-73 -31q-24 0 -43 9.5t-35 21.5t-29.5 21.5t-27.5 9.5zM478 108q0 -26 3.5 -51.5t10.5 -47.5v-9h-99q-7 18 -9.5 37.5
t-4.5 39.5q-29 -40 -78.5 -63.5t-108.5 -23.5q-71 0 -111 36.5t-40 95.5t36.5 96t112.5 48l185 28v24q-1 49 -24 78t-79 29q-58 0 -83.5 -27.5t-25.5 -75.5h-101q0 85 54.5 136.5t157.5 51.5q102 0 152.5 -53t50.5 -139zM213 67q23 0 47.5 7t47 20.5t40.5 35t28 49.5l-1 45
l-156 -25q-41 -6 -58 -24.5t-17 -44.5q0 -28 18 -45.5t51 -17.5z" />
    <glyph glyph-name="adieresis" unicode="&#xe4;" horiz-adv-x="546" 
d="M168 594q-26 0 -46.5 16t-20.5 48q0 31 20.5 47.5t46.5 16.5t46 -16.5t20 -47.5q0 -32 -20 -48t-46 -16zM387 594q-26 0 -46.5 16t-20.5 48q0 31 20.5 47.5t46.5 16.5t46 -16.5t20 -47.5q0 -32 -20 -48t-46 -16zM478 108q0 -26 3.5 -51.5t10.5 -47.5v-9h-99
q-7 18 -9.5 37.5t-4.5 39.5q-29 -40 -78.5 -63.5t-108.5 -23.5q-71 0 -111 36.5t-40 95.5t36.5 96t112.5 48l185 28v24q-1 49 -24 78t-79 29q-58 0 -83.5 -27.5t-25.5 -75.5h-101q0 85 54.5 136.5t157.5 51.5q102 0 152.5 -53t50.5 -139zM213 67q23 0 47.5 7t47 20.5
t40.5 35t28 49.5l-1 45l-156 -25q-41 -6 -58 -24.5t-17 -44.5q0 -28 18 -45.5t51 -17.5z" />
    <glyph glyph-name="aring" unicode="&#xe5;" horiz-adv-x="546" 
d="M278 549q-59 0 -92.5 33.5t-33.5 86.5q0 52 33.5 85t92.5 33q57 0 90.5 -33t33.5 -85q0 -53 -33.5 -86.5t-90.5 -33.5zM278 719q-24 0 -37.5 -13.5t-13.5 -36.5t13.5 -37.5t37.5 -14.5q23 0 36 14.5t13 37.5t-13 36.5t-36 13.5zM478 108q0 -26 3.5 -51.5t10.5 -47.5v-9
h-99q-7 18 -9.5 37.5t-4.5 39.5q-29 -40 -78.5 -63.5t-108.5 -23.5q-71 0 -111 36.5t-40 95.5t36.5 96t112.5 48l185 28v24q-1 49 -24 78t-79 29q-58 0 -83.5 -27.5t-25.5 -75.5h-101q0 85 54.5 136.5t157.5 51.5q102 0 152.5 -53t50.5 -139zM213 67q23 0 47.5 7t47 20.5
t40.5 35t28 49.5l-1 45l-156 -25q-41 -6 -58 -24.5t-17 -44.5q0 -28 18 -45.5t51 -17.5z" />
    <glyph glyph-name="ae" unicode="&#xe6;" horiz-adv-x="895" 
d="M853 219h-375q3 -70 41.5 -107t92.5 -37q51 0 88 21t44 66h104q-4 -39 -24 -71t-51.5 -54.5t-73 -34.5t-89.5 -12q-65 0 -115 25.5t-81 75.5q-31 -46 -87 -73.5t-126 -27.5q-77 0 -119 35.5t-42 95.5q0 58 37 96t114 50l183 28v21q0 49 -23.5 78t-78.5 29
q-57 0 -83 -26.5t-26 -74.5h-100q0 85 53.5 136.5t156.5 51.5q60 0 101.5 -20t66.5 -55q34 36 80.5 55.5t100.5 19.5q52 0 94.5 -17t73 -49t47 -78.5t16.5 -106.5v-40zM618 423q-52 0 -91 -31.5t-46 -97.5h263q-6 68 -39.5 98.5t-86.5 30.5zM218 67q50 0 93 23t64 70v62
l-156 -25q-41 -6 -58 -24t-17 -44q0 -27 18 -44.5t56 -17.5z" />
    <glyph glyph-name="ccedilla" unicode="&#xe7;" horiz-adv-x="556" 
d="M286 76q52 0 88.5 27t42.5 84h103q-5 -82 -57 -132.5t-133 -61.5l-11 -34q38 -1 66 -22.5t28 -63.5q0 -44 -29.5 -70.5t-90.5 -26.5q-32 0 -54 7.5t-36 20t-20 28t-6 30.5h72q0 -13 12.5 -21.5t32.5 -8.5q19 0 33.5 8.5t14.5 28.5q0 17 -11.5 27t-30.5 10q-13 0 -21 -3
l-46 29l21 60q-47 5 -86 24.5t-67.5 52t-44.5 78t-16 102.5q0 62 19.5 110.5t53.5 82t79.5 51t96.5 17.5q47 0 88 -13t72 -38.5t49.5 -62t21.5 -83.5h-104q-6 58 -42 84.5t-86 26.5q-29 0 -54.5 -10t-45 -31t-30.5 -54t-11 -78q0 -44 11 -77t30 -54.5t44.5 -32.5t53.5 -11z
" />
    <glyph glyph-name="egrave" unicode="&#xe8;" horiz-adv-x="564" 
d="M256 575l-150 143v12h115l121 -143v-12h-86zM523 219h-375q2 -35 13.5 -62t30.5 -45.5t43 -28t51 -9.5q51 0 85 21.5t41 66.5h104q-8 -78 -69.5 -125t-161.5 -47q-52 0 -97 17t-78 50t-51.5 81.5t-18.5 111.5q0 62 20 110t54 81.5t79.5 51t95.5 17.5q52 0 95 -17
t74 -50.5t48 -82.5t17 -114v-27zM287 424q-51 0 -90 -31.5t-46 -96.5h262q-6 66 -39.5 97t-86.5 31z" />
    <glyph glyph-name="eacute" unicode="&#xe9;" horiz-adv-x="564" 
d="M319 575h-86v12l121 143h115v-12zM523 219h-375q2 -35 13.5 -62t30.5 -45.5t43 -28t51 -9.5q51 0 85 21.5t41 66.5h104q-8 -78 -69.5 -125t-161.5 -47q-52 0 -97 17t-78 50t-51.5 81.5t-18.5 111.5q0 62 20 110t54 81.5t79.5 51t95.5 17.5q52 0 95 -17t74 -50.5t48 -82.5
t17 -114v-27zM287 424q-51 0 -90 -31.5t-46 -96.5h262q-6 66 -39.5 97t-86.5 31z" />
    <glyph glyph-name="ecircumflex" unicode="&#xea;" horiz-adv-x="564" 
d="M214 575h-85v12l119 143h87l119 -143v-12h-87l-77 83zM523 219h-375q2 -35 13.5 -62t30.5 -45.5t43 -28t51 -9.5q51 0 85 21.5t41 66.5h104q-8 -78 -69.5 -125t-161.5 -47q-52 0 -97 17t-78 50t-51.5 81.5t-18.5 111.5q0 62 20 110t54 81.5t79.5 51t95.5 17.5
q52 0 95 -17t74 -50.5t48 -82.5t17 -114v-27zM287 424q-51 0 -90 -31.5t-46 -96.5h262q-6 66 -39.5 97t-86.5 31z" />
    <glyph glyph-name="edieresis" unicode="&#xeb;" horiz-adv-x="564" 
d="M179 594q-26 0 -46.5 16t-20.5 48q0 31 20.5 47.5t46.5 16.5t46 -16.5t20 -47.5q0 -32 -20 -48t-46 -16zM398 594q-26 0 -46.5 16t-20.5 48q0 31 20.5 47.5t46.5 16.5t46 -16.5t20 -47.5q0 -32 -20 -48t-46 -16zM523 219h-375q2 -35 13.5 -62t30.5 -45.5t43 -28t51 -9.5
q51 0 85 21.5t41 66.5h104q-8 -78 -69.5 -125t-161.5 -47q-52 0 -97 17t-78 50t-51.5 81.5t-18.5 111.5q0 62 20 110t54 81.5t79.5 51t95.5 17.5q52 0 95 -17t74 -50.5t48 -82.5t17 -114v-27zM287 424q-51 0 -90 -31.5t-46 -96.5h262q-6 66 -39.5 97t-86.5 31z" />
    <glyph glyph-name="igrave" unicode="&#xec;" horiz-adv-x="250" 
d="M43 730l122 -143v-12h-86l-151 143v12h115zM74 500h102v-500h-102v500z" />
    <glyph glyph-name="iacute" unicode="&#xed;" horiz-adv-x="250" 
d="M311 718l-150 -143h-86v12l122 143h114v-12zM74 500h102v-500h-102v500z" />
    <glyph glyph-name="icircumflex" unicode="&#xee;" horiz-adv-x="250" 
d="M257 587v-12h-84l-49 78l-50 -78h-83v12l92 143h83zM74 500h102v-500h-102v500z" />
    <glyph glyph-name="idieresis" unicode="&#xef;" horiz-adv-x="250" 
d="M-24 653q0 29 18.5 44t43.5 15t44 -15t19 -44t-19 -45t-44 -16t-43.5 16t-18.5 45zM149 653q0 29 18.5 44t43.5 15q26 0 44.5 -15t18.5 -44t-18.5 -45t-44.5 -16q-25 0 -43.5 16t-18.5 45zM74 500h102v-500h-102v500z" />
    <glyph glyph-name="eth" unicode="&#xf0;" horiz-adv-x="601" 
d="M340 697q53 -30 92.5 -73.5t66 -96.5t40 -113.5t13.5 -125.5q0 -79 -21 -135.5t-56.5 -92.5t-82.5 -53t-99 -17t-98 17t-80.5 50t-55 81.5t-20.5 111.5q0 62 21 110.5t56.5 81.5t80.5 50.5t93 17.5q38 0 76 -13.5t61 -47.5q-43 109 -132 163l-32 -59l-77 41l28 52
q-26 7 -54 10.5t-59 3.5v96q89 0 159 -24l32 60l77 -41zM296 81q30 0 57 10.5t47.5 31.5t32.5 52.5t12 73.5q0 46 -11.5 78t-31.5 52.5t-47 30t-59 9.5q-30 0 -57 -10.5t-47.5 -31.5t-33 -52.5t-12.5 -73.5q0 -43 12.5 -75t33 -53t47.5 -31.5t57 -10.5z" />
    <glyph glyph-name="ntilde" unicode="&#xf1;" horiz-adv-x="597" 
d="M235 635q-21 0 -31 -12.5t-10 -41.5h-74q0 74 29.5 105t73.5 31q26 0 45.5 -9.5t35.5 -21.5t29 -21.5t25 -9.5q40 0 40 54h74q0 -74 -29 -105t-73 -31q-24 0 -43 9.5t-35 21.5t-29.5 21.5t-27.5 9.5zM344 510q95 0 140 -55t45 -144v-311h-103v300q0 119 -112 119
q-51 0 -88 -31.5t-50 -85.5v-302h-102v500h99v-75q26 41 70 63t101 22z" />
    <glyph glyph-name="ograve" unicode="&#xf2;" horiz-adv-x="592" 
d="M230 730l121 -143v-12h-86l-150 143v12h115zM552 252q0 -62 -21 -110.5t-56.5 -82.5t-82.5 -51.5t-99 -17.5t-98 17t-80.5 50t-55 81.5t-20.5 111.5q0 62 21 110.5t57 81.5t83 50.5t99 17.5t98 -17t80.5 -50t54.5 -81t20 -110zM445 249q0 43 -12 75t-32.5 53t-47.5 31.5
t-57 10.5t-57 -10.5t-47.5 -31.5t-33 -52.5t-12.5 -73.5q0 -43 12.5 -75t33 -53t47.5 -31.5t57 -10.5t57 10.5t47.5 31.5t32.5 52.5t12 73.5z" />
    <glyph glyph-name="oacute" unicode="&#xf3;" horiz-adv-x="592" 
d="M483 718l-151 -143h-86v12l122 143h115v-12zM552 252q0 -62 -21 -110.5t-56.5 -82.5t-82.5 -51.5t-99 -17.5t-98 17t-80.5 50t-55 81.5t-20.5 111.5q0 62 21 110.5t57 81.5t83 50.5t99 17.5t98 -17t80.5 -50t54.5 -81t20 -110zM445 249q0 43 -12 75t-32.5 53t-47.5 31.5
t-57 10.5t-57 -10.5t-47.5 -31.5t-33 -52.5t-12.5 -73.5q0 -43 12.5 -75t33 -53t47.5 -31.5t57 -10.5t57 10.5t47.5 31.5t32.5 52.5t12 73.5z" />
    <glyph glyph-name="ocircumflex" unicode="&#xf4;" horiz-adv-x="592" 
d="M223 575h-85v12l119 143h87l119 -143v-12h-87l-77 83zM299 510q52 0 98 -17t80.5 -50t54.5 -81t20 -110t-21 -110.5t-56.5 -82.5t-82.5 -51.5t-99 -17.5t-98 17t-80.5 50t-55 81.5t-20.5 111.5q0 62 21 110.5t57 81.5t83 50.5t99 17.5zM296 81q30 0 57 10.5t47.5 31.5
t32.5 52.5t12 73.5q0 43 -12 75t-32.5 53t-47.5 31.5t-57 10.5t-57 -10.5t-47.5 -31.5t-33 -52.5t-12.5 -73.5q0 -43 12.5 -75t33 -53t47.5 -31.5t57 -10.5z" />
    <glyph glyph-name="otilde" unicode="&#xf5;" horiz-adv-x="592" 
d="M119 581q0 74 29 105t73 31q26 0 45.5 -9.5t35.5 -21.5t29 -21.5t25 -9.5q41 0 41 54h74q0 -74 -29.5 -105t-73.5 -31q-24 0 -43 9.5t-35 21.5t-29.5 21.5t-27.5 9.5q-21 0 -30.5 -12.5t-9.5 -41.5h-74zM552 252q0 -62 -21 -110.5t-56.5 -82.5t-82.5 -51.5t-99 -17.5
t-98 17t-80.5 50t-55 81.5t-20.5 111.5q0 62 21 110.5t57 81.5t83 50.5t99 17.5t98 -17t80.5 -50t54.5 -81t20 -110zM445 249q0 43 -12 75t-32.5 53t-47.5 31.5t-57 10.5t-57 -10.5t-47.5 -31.5t-33 -52.5t-12.5 -73.5q0 -43 12.5 -75t33 -53t47.5 -31.5t57 -10.5t57 10.5
t47.5 31.5t32.5 52.5t12 73.5z" />
    <glyph glyph-name="odieresis" unicode="&#xf6;" horiz-adv-x="592" 
d="M122 658q0 31 20.5 47.5t46.5 16.5t46 -16.5t20 -47.5q0 -32 -20 -48t-46 -16t-46.5 16t-20.5 48zM341 658q0 31 20.5 47.5t46.5 16.5t46 -16.5t20 -47.5q0 -32 -20 -48t-46 -16t-46.5 16t-20.5 48zM552 252q0 -62 -21 -110.5t-56.5 -82.5t-82.5 -51.5t-99 -17.5t-98 17
t-80.5 50t-55 81.5t-20.5 111.5q0 62 21 110.5t57 81.5t83 50.5t99 17.5t98 -17t80.5 -50t54.5 -81t20 -110zM445 249q0 43 -12 75t-32.5 53t-47.5 31.5t-57 10.5t-57 -10.5t-47.5 -31.5t-33 -52.5t-12.5 -73.5q0 -43 12.5 -75t33 -53t47.5 -31.5t57 -10.5t57 10.5
t47.5 31.5t32.5 52.5t12 73.5z" />
    <glyph glyph-name="divide" unicode="&#xf7;" horiz-adv-x="566" 
d="M216 461q0 32 20 48t47 16t47 -16t20 -48q0 -31 -20 -47.5t-47 -16.5t-47 16.5t-20 47.5zM518 312v-87h-471v87h471zM216 76q0 31 20 47.5t47 16.5t47 -16.5t20 -47.5t-20 -47.5t-47 -16.5t-47 16.5t-20 47.5z" />
    <glyph glyph-name="oslash" unicode="&#xf8;" horiz-adv-x="613" 
d="M521 404q20 -30 31 -68t11 -84q0 -62 -21 -110.5t-56.5 -82.5t-82.5 -51.5t-99 -17.5q-87 0 -152 45l-68 -68l-60 62l68 68q-42 62 -42 153q0 62 21 110.5t57 81.5t83 50.5t99 17.5q42 0 80 -11t70 -34l68 68l61 -61zM157 251q0 -42 13 -76l220 220q-36 24 -83 24
q-30 0 -57 -10.5t-47.5 -31.5t-33 -52.5t-12.5 -73.5zM456 249q0 23 -3.5 41.5t-9.5 35.5l-220 -220q18 -13 39.5 -19t44.5 -6q30 0 57 10.5t47.5 31.5t32.5 52.5t12 73.5z" />
    <glyph glyph-name="ugrave" unicode="&#xf9;" horiz-adv-x="592" 
d="M246 575l-150 143v12h114l122 -143v-12h-86zM518 106q0 -23 3.5 -49t10.5 -48v-9h-100q-6 17 -9 37t-4 40q-27 -41 -71 -64t-101 -23q-90 0 -134.5 52.5t-44.5 141.5v316h102v-304q0 -115 108 -115q49 0 86 30.5t51 82.5v306h103v-394z" />
    <glyph glyph-name="uacute" unicode="&#xfa;" horiz-adv-x="592" 
d="M328 575h-86v12l122 143h114v-12zM518 106q0 -23 3.5 -49t10.5 -48v-9h-100q-6 17 -9 37t-4 40q-27 -41 -71 -64t-101 -23q-90 0 -134.5 52.5t-44.5 141.5v316h102v-304q0 -115 108 -115q49 0 86 30.5t51 82.5v306h103v-394z" />
    <glyph glyph-name="ucircumflex" unicode="&#xfb;" horiz-adv-x="592" 
d="M214 575h-85v12l119 143h87l119 -143v-12h-87l-77 83zM518 106q0 -23 3.5 -49t10.5 -48v-9h-100q-6 17 -9 37t-4 40q-27 -41 -71 -64t-101 -23q-90 0 -134.5 52.5t-44.5 141.5v316h102v-304q0 -115 108 -115q49 0 86 30.5t51 82.5v306h103v-394z" />
    <glyph glyph-name="udieresis" unicode="&#xfc;" horiz-adv-x="592" 
d="M182 594q-26 0 -46.5 16t-20.5 48q0 31 20.5 47.5t46.5 16.5t46 -16.5t20 -47.5q0 -32 -20 -48t-46 -16zM401 594q-26 0 -46.5 16t-20.5 48q0 31 20.5 47.5t46.5 16.5t46 -16.5t20 -47.5q0 -32 -20 -48t-46 -16zM518 106q0 -23 3.5 -49t10.5 -48v-9h-100q-6 17 -9 37
t-4 40q-27 -41 -71 -64t-101 -23q-90 0 -134.5 52.5t-44.5 141.5v316h102v-304q0 -115 108 -115q49 0 86 30.5t51 82.5v306h103v-394z" />
    <glyph glyph-name="yacute" unicode="&#xfd;" horiz-adv-x="530" 
d="M302 575h-86v12l122 143h114v-12zM522 500l-203 -500l-55 -120q-13 -27 -27 -47t-33 -32.5t-43.5 -18.5t-58.5 -6q-14 0 -30 1.5t-29 3.5v81q27 -5 50 -5q30 0 51.5 11.5t35.5 43.5l36 78l-209 510h113l97 -261q6 -16 13 -36t13.5 -40t13 -39.5t11.5 -35.5q11 32 25.5 76
t26.5 76l95 260h107z" />
    <glyph glyph-name="thorn" unicode="&#xfe;" horiz-adv-x="611" 
d="M348 510q45 0 85.5 -16.5t70.5 -49t48 -81t18 -113.5q0 -64 -18.5 -113t-49.5 -81.5t-72 -49t-87 -16.5q-55 0 -97.5 19.5t-69.5 55.5v-279h-102v964h102v-320q28 38 72.5 59t99.5 21zM320 81q27 0 53 9.5t46 30t32 53t12 77.5t-12 77t-32 52t-45 29.5t-52 9.5
q-51 0 -92 -31t-54 -85v-110q13 -50 53 -81t91 -31z" />
    <glyph glyph-name="ydieresis" unicode="&#xff;" horiz-adv-x="530" 
d="M156 594q-26 0 -46.5 16t-20.5 48q0 31 20.5 47.5t46.5 16.5t46 -16.5t20 -47.5q0 -32 -20 -48t-46 -16zM375 594q-26 0 -46.5 16t-20.5 48q0 31 20.5 47.5t46.5 16.5t46 -16.5t20 -47.5q0 -32 -20 -48t-46 -16zM522 500l-203 -500l-55 -120q-13 -27 -27 -47t-33 -32.5
t-43.5 -18.5t-58.5 -6q-14 0 -30 1.5t-29 3.5v81q27 -5 50 -5q30 0 51.5 11.5t35.5 43.5l36 78l-209 510h113l97 -261q6 -16 13 -36t13.5 -40t13 -39.5t11.5 -35.5q11 32 25.5 76t26.5 76l95 260h107z" />
    <glyph glyph-name="dotlessi" unicode="&#x131;" horiz-adv-x="250" 
d="M74 500h102v-500h-102v500z" />
    <glyph glyph-name="Lslash" unicode="&#x141;" horiz-adv-x="627" 
d="M612 91v-91h-484v270l-63 -30l-37 77l100 47v326h104v-277l114 53l36 -76l-150 -71v-228h380z" />
    <glyph glyph-name="lslash" unicode="&#x142;" horiz-adv-x="326" 
d="M217 352v-352h-103v304l-54 -25l-37 79l91 43v349h103v-301l56 26l37 -79z" />
    <glyph glyph-name="OE" unicode="&#x152;" horiz-adv-x="1162" 
d="M1116 91v-91h-498v95q-43 -51 -103 -78t-134 -27q-70 0 -131 23t-107 68t-72.5 111t-26.5 153q0 85 27.5 151t75 111.5t110 69t132.5 23.5q72 0 129.5 -25t99.5 -73v88h493v-91h-388v-198h346v-89h-346v-221h393zM385 82q47 0 89 15.5t74 47.5t51 81.5t19 117.5t-19 118
t-51 82.5t-74 48t-89 15.5q-46 0 -88 -16t-74.5 -48.5t-51.5 -82t-19 -115.5t19 -115.5t51.5 -82.5t74.5 -49.5t88 -16.5z" />
    <glyph glyph-name="oe" unicode="&#x153;" horiz-adv-x="970" 
d="M928 219h-375q2 -35 13.5 -62t30.5 -45.5t43.5 -28t51.5 -9.5q51 0 86 21.5t41 66.5h104q-8 -79 -70 -125.5t-159 -46.5q-66 0 -116.5 26t-81.5 77q-35 -50 -87.5 -76.5t-115.5 -26.5q-52 0 -98 17t-80.5 50t-55 81.5t-20.5 111.5q0 62 21 110.5t57 81.5t83 50.5t99 17.5
q63 0 115 -26.5t85 -77.5q32 50 84 77t115 27q51 0 93.5 -17t73 -49t47 -78.5t16.5 -106.5v-40zM693 424q-51 0 -90 -31.5t-46 -96.5h262q-5 66 -38.5 97t-87.5 31zM296 81q30 0 57 10.5t47.5 31.5t32.5 52.5t12 73.5q0 43 -12 75t-32.5 53t-47.5 31.5t-57 10.5t-57 -10.5
t-47.5 -31.5t-33 -52.5t-12.5 -73.5q0 -43 12.5 -75t33 -53t47.5 -31.5t57 -10.5z" />
    <glyph glyph-name="Scaron" unicode="&#x160;" horiz-adv-x="668" 
d="M176 877v12h91l68 -66l68 66h91v-12l-117 -123h-85zM413 388q108 -17 160.5 -63.5t52.5 -134.5q0 -44 -18 -81t-54.5 -63.5t-91.5 -41.5t-129 -15q-151 0 -225 61t-74 164h106q0 -62 47.5 -99t144.5 -36q95 0 140.5 28t45.5 78q0 26 -10 44.5t-28.5 31t-44 20t-55.5 12.5
l-111 17q-103 15 -156.5 61.5t-53.5 131.5q0 41 16 77t49.5 62.5t84.5 42t121 15.5q71 0 123.5 -16.5t87 -46t52 -71t17.5 -92.5h-104q0 66 -46.5 102.5t-131.5 34.5q-83 -2 -122 -29.5t-39 -73.5q0 -49 34.5 -70t97.5 -31z" />
    <glyph glyph-name="scaron" unicode="&#x161;" horiz-adv-x="516" 
d="M95 718v12h85l76 -82l76 82h88v-12l-119 -143h-87zM318 290q84 -11 121.5 -48.5t37.5 -98.5q0 -31 -13 -59t-40 -49t-68.5 -33t-98.5 -12q-58 0 -100 13.5t-69 37t-40 56.5t-13 72h103q0 -42 29 -70t91 -28q58 1 86.5 18t28.5 48q0 30 -21 45.5t-62 20.5l-86 11
q-79 9 -116.5 46.5t-37.5 97.5q0 31 12 58.5t37.5 48.5t64 33t91.5 12q54 0 94 -13.5t66 -37.5t38.5 -57t12.5 -71h-101q0 47 -28.5 73t-85.5 25q-54 -2 -77 -20t-23 -47q0 -26 19.5 -40.5t64.5 -20.5z" />
    <glyph glyph-name="Ydieresis" unicode="&#x178;" horiz-adv-x="656" 
d="M219 757q-26 0 -46 16t-20 48q0 31 20 47.5t46 16.5t46.5 -16.5t20.5 -47.5q0 -32 -20.5 -48t-46.5 -16zM438 757q-26 0 -46 16t-20 48q0 31 20 47.5t46 16.5t46.5 -16.5t20.5 -47.5q0 -32 -20.5 -48t-46.5 -16zM381 289v-289h-105v286l-270 404h129l121 -187
q23 -34 43 -68t31 -54q11 20 32 54t44 69l122 186h122z" />
    <glyph glyph-name="Zcaron" unicode="&#x17d;" horiz-adv-x="637" 
d="M161 877v12h91l68 -66l68 66h91v-12l-117 -123h-85zM604 91v-91h-569v88l342 412q23 28 47.5 55.5t41.5 46.5q-26 -2 -61.5 -2.5t-73.5 -0.5h-286v91h552v-87l-348 -418q-23 -28 -45 -53.5t-39 -44.5q26 2 60.5 3t66.5 1h312z" />
    <glyph glyph-name="zcaron" unicode="&#x17e;" horiz-adv-x="494" 
d="M83 718v12h85l76 -82l76 82h88v-12l-119 -143h-87zM459 86v-86h-422v76l203 250q17 20 40.5 46.5t40.5 44.5q-26 -1 -62.5 -2t-62.5 -1h-151v86h406v-76l-210 -255q-16 -19 -38 -44t-37 -42q23 1 56 2t57 1h180z" />
    <glyph glyph-name="uni0237" unicode="&#x237;" horiz-adv-x="258" 
d="M184 -79q0 -72 -40 -108.5t-112 -36.5q-16 0 -33.5 2t-31.5 5v89q25 -5 53 -5q29 0 45.5 16t16.5 50v567h102v-579z" />
    <glyph glyph-name="circumflex" unicode="&#x2c6;" horiz-adv-x="600" 
d="M383 587v-12h-88l-76 83l-76 -83h-85v12l119 143h86z" />
    <glyph glyph-name="caron" unicode="&#x2c7;" horiz-adv-x="600" 
d="M384 730v-12l-119 -143h-87l-119 143v12h85l76 -82l76 82h88z" />
    <glyph glyph-name="breve" unicode="&#x2d8;" horiz-adv-x="600" 
d="M195 644q27 0 46 19t21 67h80q0 -81 -39 -121t-108 -40t-107.5 40t-38.5 121h80q2 -48 21 -67t45 -19z" />
    <glyph glyph-name="dotaccent" unicode="&#x2d9;" horiz-adv-x="600" 
d="M48 658q0 32 20.5 49.5t48.5 17.5q27 0 48 -17.5t21 -49.5t-21 -49.5t-48 -17.5q-28 0 -48.5 17.5t-20.5 49.5z" />
    <glyph glyph-name="ring" unicode="&#x2da;" horiz-adv-x="600" 
d="M147 549q-59 0 -92.5 33.5t-33.5 86.5q0 52 33.5 85t92.5 33q58 0 91.5 -33t33.5 -85q0 -53 -33.5 -86.5t-91.5 -33.5zM147 617q23 0 36.5 14.5t13.5 37.5t-13.5 36.5t-36.5 13.5t-37 -13.5t-14 -36.5t14 -37.5t37 -14.5z" />
    <glyph glyph-name="ogonek" unicode="&#x2db;" horiz-adv-x="600" 
d="M204 0q-36 -20 -59 -51t-23 -60q0 -32 22.5 -48.5t66.5 -3.5v-63q-48 -10 -80.5 -5t-52 21t-28 39.5t-8.5 49.5q0 42 29 82.5t88 76.5z" />
    <glyph glyph-name="tilde" unicode="&#x2dc;" horiz-adv-x="600" 
d="M84 581q0 74 29 105t73 31q26 0 45.5 -9.5t35.5 -21.5t29 -21.5t25 -9.5q40 0 40 54h74q0 -74 -29 -105t-73 -31q-24 0 -43 9.5t-35 21.5t-29.5 21.5t-27.5 9.5q-21 0 -30.5 -12.5t-9.5 -41.5h-74z" />
    <glyph glyph-name="hungarumlaut" unicode="&#x2dd;" horiz-adv-x="600" 
d="M243 718l-128 -143h-65v12l105 143h88v-12zM390 718l-127 -143h-66v12l105 143h88v-12z" />
    <glyph glyph-name="gravecomb" unicode="&#x300;" 
d="M-171 730l121 -143v-12h-86l-150 143v12h115z" />
    <glyph glyph-name="acutecomb" unicode="&#x301;" 
d="M-50 718l-150 -143h-86v12l122 143h114v-12z" />
    <glyph glyph-name="uni0302" unicode="&#x302;" 
d="M-57 587v-12h-88l-76 83l-76 -83h-85v12l119 143h86z" />
    <glyph glyph-name="tildecomb" unicode="&#x303;" 
d="M-435 581q0 74 29 105t73 31q25 0 45 -9.5t36 -21.5t29 -21.5t25 -9.5q40 0 40 54h74q0 -74 -29 -105t-73 -31q-24 0 -43 9.5t-35 21.5t-30 21.5t-27 9.5q-21 0 -30.5 -12.5t-9.5 -41.5h-74z" />
    <glyph glyph-name="uni0304" unicode="&#x304;" 
d="M-50 683v-81h-309v81h309z" />
    <glyph glyph-name="uni0306" unicode="&#x306;" 
d="M-196 644q27 0 46 19t21 67h80q0 -81 -39 -121t-108 -40t-107.5 40t-38.5 121h80q2 -48 21 -67t45 -19z" />
    <glyph glyph-name="uni0307" unicode="&#x307;" 
d="M-186 658q0 32 20.5 49.5t48.5 17.5q27 0 48 -17.5t21 -49.5t-21 -49.5t-48 -17.5q-28 0 -48.5 17.5t-20.5 49.5z" />
    <glyph glyph-name="uni0308" unicode="&#x308;" 
d="M-390 658q0 31 20.5 47.5t46.5 16.5t46 -16.5t20 -47.5q0 -32 -20 -48t-46 -16t-46.5 16t-20.5 48zM-171 658q0 31 20.5 47.5t46.5 16.5t46 -16.5t20 -47.5q0 -32 -20 -48t-46 -16t-46.5 16t-20.5 48z" />
    <glyph glyph-name="uni030A" unicode="&#x30a;" 
d="M-146 549q-59 0 -92.5 33.5t-33.5 86.5q0 52 33.5 85t92.5 33q58 0 91.5 -33t33.5 -85q0 -53 -33.5 -86.5t-91.5 -33.5zM-146 617q23 0 36.5 14.5t13.5 37.5t-13.5 36.5t-36.5 13.5t-37 -13.5t-14 -36.5t14 -37.5t37 -14.5z" />
    <glyph glyph-name="uni030B" unicode="&#x30b;" 
d="M-197 718l-128 -143h-65v12l105 143h88v-12zM-50 718l-127 -143h-66v12l105 143h88v-12z" />
    <glyph glyph-name="uni030C" unicode="&#x30c;" 
d="M-56 730v-12l-119 -143h-87l-119 143v12h85l76 -82l76 82h88z" />
    <glyph glyph-name="uni0327" unicode="&#x327;" 
d="M-139 -41q38 -1 66 -22.5t28 -63.5q0 -44 -29.5 -70.5t-89.5 -26.5q-32 0 -54.5 7.5t-36.5 20t-20 28t-6 30.5h72q0 -13 13 -21.5t33 -8.5q18 0 32.5 8.5t14.5 28.5q0 17 -11.5 27t-30.5 10q-5 0 -11 -0.5t-10 -2.5l-46 29l29 80l74 1z" />
    <glyph glyph-name="uni0328" unicode="&#x328;" 
d="M-152 0q-36 -20 -59 -51t-23 -60q0 -32 22.5 -48.5t66.5 -3.5v-63q-48 -10 -80.5 -5t-52 21t-28 39.5t-8.5 49.5q0 42 29 82.5t88 76.5z" />
    <glyph glyph-name="uni0335" unicode="&#x335;" 
d="M-47 325v-89h-317v89h317z" />
    <glyph glyph-name="uni0337" unicode="&#x337;" 
d="M-109 445l37 -79l-250 -118l-37 80z" />
    <glyph glyph-name="uni0338" unicode="&#x338;" 
d="M87 658l61 -61l-504 -505l-61 62z" />
    <glyph glyph-name="endash" unicode="&#x2013;" horiz-adv-x="590" 
d="M530 325v-89h-470v89h470z" />
    <glyph glyph-name="emdash" unicode="&#x2014;" horiz-adv-x="913" 
d="M853 325v-89h-793v89h793z" />
    <glyph glyph-name="quoteleft" unicode="&#x2018;" horiz-adv-x="221" 
d="M38 546q0 12 4 25t9 24l63 137h58v-12l-30 -120q13 -8 21.5 -21.5t8.5 -32.5q0 -31 -20 -47.5t-47 -16.5t-47 16.5t-20 47.5z" />
    <glyph glyph-name="quoteright" unicode="&#x2019;" horiz-adv-x="221" 
d="M188 662q0 -12 -4 -25t-9 -24l-63 -137h-57v12l29 120q-13 8 -21 21.5t-8 32.5q0 31 20 47.5t47 16.5q26 0 46 -16.5t20 -47.5z" />
    <glyph glyph-name="quotesinglbase" unicode="&#x201a;" horiz-adv-x="233" 
d="M184 54q0 -12 -4.5 -25t-9.5 -24l-63 -137h-57v12l29 120q-13 8 -21 21.5t-8 32.5q0 31 20 47.5t47 16.5t47 -16.5t20 -47.5z" />
    <glyph glyph-name="quotedblleft" unicode="&#x201c;" horiz-adv-x="414" 
d="M39 535q0 12 4 25t9 24l63 137h58v-12l-30 -120q13 -8 21.5 -21.5t8.5 -32.5q0 -31 -20 -47.5t-47 -16.5t-47 16.5t-20 47.5zM231 535q0 12 4 25t9 24l63 137h58v-12l-29 -120q12 -8 20.5 -21.5t8.5 -32.5q0 -31 -20 -47.5t-47 -16.5t-47 16.5t-20 47.5z" />
    <glyph glyph-name="quotedblright" unicode="&#x201d;" horiz-adv-x="413" 
d="M188 662q0 -12 -4 -25t-9 -24l-63 -137h-57v12l29 120q-13 8 -21 21.5t-8 32.5q0 31 20 47.5t47 16.5q26 0 46 -16.5t20 -47.5zM381 662q0 -12 -4.5 -25t-9.5 -24l-63 -137h-57v12l29 120q-13 8 -21 21.5t-8 32.5q0 31 20 47.5t47 16.5t47 -16.5t20 -47.5z" />
    <glyph glyph-name="quotedblbase" unicode="&#x201e;" horiz-adv-x="430" 
d="M184 54q0 -12 -4.5 -25t-9.5 -24l-63 -137h-57v12l29 120q-13 8 -21 21.5t-8 32.5q0 31 20 47.5t47 16.5t47 -16.5t20 -47.5zM380 54q0 -12 -4 -25t-9 -24l-63 -137h-58v12l29 120q-13 8 -21 21.5t-8 32.5q0 31 20 47.5t47 16.5t47 -16.5t20 -47.5z" />
    <glyph glyph-name="dagger" unicode="&#x2020;" horiz-adv-x="465" 
d="M437 410h-156v-410h-96v410h-156v90h156v190h96v-190h156v-90z" />
    <glyph glyph-name="daggerdbl" unicode="&#x2021;" horiz-adv-x="482" 
d="M289 410v-193h156v-90h-156v-207h-96v207h-156v90h156v193h-156v90h156v190h96v-190h156v-90h-156z" />
    <glyph glyph-name="bullet" unicode="&#x2022;" horiz-adv-x="350" 
d="M77 306q0 46 29.5 70t68.5 24q40 0 69 -24t29 -70q0 -45 -29 -69t-69 -24q-39 0 -68.5 24t-29.5 69z" />
    <glyph glyph-name="ellipsis" unicode="&#x2026;" horiz-adv-x="650" 
d="M48 54q0 31 20 47.5t47 16.5t47 -16.5t20 -47.5t-20 -47.5t-47 -16.5t-47 16.5t-20 47.5zM258 54q0 31 20 47.5t47 16.5t47 -16.5t20 -47.5t-20 -47.5t-47 -16.5t-47 16.5t-20 47.5zM468 54q0 31 20 47.5t47 16.5t47 -16.5t20 -47.5t-20 -47.5t-47 -16.5t-47 16.5
t-20 47.5z" />
    <glyph glyph-name="perthousand" unicode="&#x2030;" horiz-adv-x="1381" 
d="M639 700h99l-417 -710h-99zM389 485q0 -51 -13.5 -90.5t-38 -67.5t-57.5 -42.5t-72 -14.5q-79 0 -128 54t-49 159q0 51 13.5 90.5t37.5 67t57 41.5t72 14q79 0 128.5 -55t49.5 -156zM292 482q0 67 -21.5 101t-60.5 34t-60.5 -33t-21.5 -100q0 -68 21.5 -101.5t60.5 -33.5
t60.5 33.5t21.5 99.5zM933 209q0 -51 -13.5 -90.5t-37.5 -67.5t-57 -42.5t-72 -14.5q-79 0 -128.5 54.5t-49.5 158.5q0 51 13.5 90.5t38 67t57.5 41.5t72 14t71.5 -14t56 -41t36.5 -66.5t13 -89.5zM1350 209q0 -51 -13.5 -90.5t-37.5 -67.5t-57 -42.5t-72 -14.5
q-79 0 -128.5 54.5t-49.5 158.5q0 51 13.5 90.5t38 67t57.5 41.5t72 14q79 0 128 -55t49 -156zM836 206q0 67 -21.5 101t-60.5 34t-60.5 -33t-21.5 -100q0 -68 21.5 -101.5t60.5 -33.5t60.5 33.5t21.5 99.5zM1253 206q0 67 -21.5 101t-60.5 34t-60.5 -33t-21.5 -100
q0 -68 21.5 -101.5t60.5 -33.5t60.5 33.5t21.5 99.5z" />
    <glyph glyph-name="guilsinglleft" unicode="&#x2039;" horiz-adv-x="317" 
d="M136 252l142 -201h-115l-121 166v70l121 166h115z" />
    <glyph glyph-name="guilsinglright" unicode="&#x203a;" horiz-adv-x="317" 
d="M275 287v-70l-121 -166h-115l142 202l-142 200h115z" />
    <glyph glyph-name="fraction" unicode="&#x2044;" horiz-adv-x="207" 
d="M263 700h99l-417 -710h-99z" />
    <glyph glyph-name="Euro" unicode="&#x20ac;" horiz-adv-x="619" 
d="M410 82q83 0 145 25l24 -85q-35 -15 -79 -23.5t-95 -8.5q-52 0 -99 15.5t-85.5 46t-67 76t-42.5 104.5h-79l15 77h53q-1 9 -1 18v18v19.5t1 19.5h-68l15 77h66q15 58 44 102.5t68.5 75t87 46t99.5 15.5q50 0 94.5 -8t77.5 -25l-29 -84q-26 11 -63 18t-81 7
q-63 0 -114.5 -34.5t-74.5 -112.5h288l-15 -77h-287q-1 -9 -1 -18.5v-19.5v-19t1 -18h302l-15 -77h-273q23 -78 74.5 -114t113.5 -36z" />
    <glyph glyph-name="trademark" unicode="&#x2122;" horiz-adv-x="977" 
d="M399 616h-141v-340h-89v340h-140v74h370v-74zM901 690v-414h-85l2 231q0 24 1 50t3 46q-5 -18 -13.5 -42.5t-15.5 -45.5l-82 -239h-77l-79 240q-8 22 -17 49.5t-15 46.5q1 -20 2 -49t1 -57l2 -230h-85v414h127l88 -254q5 -14 10 -31t10 -33q4 14 8.5 31t9.5 33l86 254
h119z" />
    <glyph glyph-name="minus" unicode="&#x2212;" horiz-adv-x="553" 
d="M489 311v-88h-426v88h426z" />
    <glyph glyph-name="uniF8FF" unicode="&#xf8ff;" horiz-adv-x="1137" 
d="M249 573q0 -22 -22 -22h-108v146q0 11 6.5 18t18.5 7q11 0 18 -7t7 -18v-102h58q22 0 22 -22zM265 636q0 37 26.5 61.5t66.5 24.5t66 -24t26 -62t-26 -63t-66 -25t-66.5 25t-26.5 63zM566 600q0 9 -13 12t-28 7.5t-28 15t-13 33.5q0 24 17.5 39t52.5 15q23 0 41.5 -8
t18.5 -26q0 -19 -20 -19q-11 0 -21 5.5t-24 5.5q-16 0 -16 -10q0 -7 13 -9.5t28 -7.5t28 -16t13 -35q0 -25 -19.5 -39.5t-51.5 -14.5q-30 0 -48 9t-18 26q0 20 22 20q12 0 20 -6t26 -6q20 0 20 9zM398 636q0 18 -11 29.5t-29 11.5q-19 0 -30.5 -11.5t-11.5 -29.5
q0 -17 11.5 -29.5t30.5 -12.5q18 0 29 11.5t11 30.5zM454 285l-81 85v-63q0 -11 -7.5 -18.5t-18.5 -7.5t-18 7.5t-7 18.5v146h32l81 -85v63q0 11 7 18t18 7t18.5 -7t7.5 -18v-146h-32zM987 334q0 9 -13 11.5t-28 7.5t-28 15t-13 34q0 25 18 39.5t53 14.5q23 0 41.5 -8.5
t18.5 -26.5q0 -19 -20 -19q-11 0 -21 5.5t-24 5.5q-16 0 -16 -9q0 -8 13 -10.5t28 -7.5t28 -16t13 -35q0 -25 -19.5 -39.5t-52.5 -14.5q-29 0 -47 9t-18 26q0 9 5.5 15t16.5 6t19 -6.5t26 -6.5q20 0 20 10zM261 281q-19 0 -25 15l-5 13h-70l-5 -13q-6 -15 -25 -15
q-14 0 -21 11t0 25l66 136h40l65 -136q6 -14 0 -25t-20 -11zM700 369q0 -38 -24.5 -61t-66.5 -23h-75v168h75q42 0 66.5 -23t24.5 -61zM861 369q0 -20 -22 -20h-48v-23h58q21 0 21 -21q0 -20 -21 -20h-109v168h109q10 0 15.5 -6t5.5 -15t-5.5 -15.5t-15.5 -6.5h-58v-20h48
q11 0 16.5 -6.5t5.5 -14.5zM649 368q0 18 -10.5 29t-30.5 11h-23v-80h23q20 0 30.5 11.5t10.5 28.5zM217 343l-21 51l-21 -51h42zM158 22v104h-36q-11 0 -16.5 7t-5.5 15q0 9 5.5 15.5t16.5 6.5h122q11 0 17.5 -6t6.5 -16q0 -9 -6.5 -15.5t-17.5 -6.5h-35v-104
q0 -11 -7.5 -18t-18.5 -7t-18 7t-7 18zM455 169l-63 -100v-47q0 -11 -7 -18t-18 -7t-18.5 7t-7.5 18v47l-62 100h58l31 -59l30 59h57zM555 42h-23v-20q0 -11 -6.5 -18t-17.5 -7t-19 7t-8 18v147h74q33 0 51 -18.5t18 -44.5q0 -27 -18 -45.5t-51 -18.5zM780 85q0 -20 -22 -20
h-48v-22h58q22 0 22 -22q0 -9 -5.5 -15t-16.5 -6h-109v169h109q11 0 16.5 -6t5.5 -15t-5.5 -15.5t-16.5 -6.5h-58v-20h48q11 0 16.5 -6.5t5.5 -14.5zM551 84q25 0 25 22q0 9 -6 15.5t-19 6.5h-19v-44h19z" />
    <glyph glyph-name="acute.case" horiz-adv-x="336" 
d="M286 877l-150 -123h-86v12l122 123h114v-12z" />
    <glyph glyph-name="acutecomb.case" 
d="M-50 877l-150 -123h-86v12l122 123h114v-12z" />
    <glyph glyph-name="caron.case" horiz-adv-x="600" 
d="M379 889v-12l-116 -123h-85l-117 123v12h91l68 -66l68 66h91z" />
    <glyph glyph-name="circumflex.case" horiz-adv-x="600" 
d="M379 766v-12h-91l-68 66l-68 -66h-91v12l117 123h85z" />
    <glyph glyph-name="dieresis.case" horiz-adv-x="600" 
d="M56 821q0 31 20 47.5t46 16.5t46.5 -16.5t20.5 -47.5q0 -32 -20.5 -48t-46.5 -16t-46 16t-20 48zM275 821q0 31 20 47.5t46 16.5t46.5 -16.5t20.5 -47.5q0 -32 -20.5 -48t-46.5 -16t-46 16t-20 48z" />
    <glyph glyph-name="grave.case" horiz-adv-x="600" 
d="M286 754h-86l-150 123v12h115l121 -123v-12z" />
    <glyph glyph-name="gravecomb.case" 
d="M-50 754h-86l-150 123v12h115l121 -123v-12z" />
    <glyph glyph-name="ring.case" horiz-adv-x="600" 
d="M147 735q-59 0 -92.5 33.5t-33.5 86.5q0 52 33.5 85t92.5 33q58 0 91.5 -33t33.5 -85q0 -53 -33.5 -86.5t-91.5 -33.5zM147 800q24 0 38.5 15.5t14.5 39.5q0 23 -14.5 38t-38.5 15q-25 0 -39.5 -15t-14.5 -38q0 -24 14.5 -39.5t39.5 -15.5z" />
    <glyph glyph-name="tilde.case" horiz-adv-x="600" 
d="M80 760q0 68 30.5 97t73.5 29q26 0 46 -8t36.5 -18t29.5 -18t26 -8q42 0 42 49h75q0 -67 -30.5 -96t-74.5 -29q-25 0 -44 8t-35 17.5t-30 17.5t-29 8q-41 0 -41 -49h-75z" />
    <glyph glyph-name="tildecomb.case" 
d="M-445 760q0 68 30 97t74 29q26 0 46 -8t36.5 -18t29.5 -18t26 -8q42 0 42 49h75q0 -67 -30.5 -96t-74.5 -29q-25 0 -44 8t-35 17.5t-30 17.5t-29 8q-41 0 -41 -49h-75z" />
    <glyph glyph-name="uni0302.case" 
d="M-61 766v-12h-91l-68 66l-68 -66h-91v12l117 123h85z" />
    <glyph glyph-name="uni0308.case" 
d="M-408 821q0 31 20 47.5t46 16.5t46.5 -16.5t20.5 -47.5q0 -32 -20.5 -48t-46.5 -16t-46 16t-20 48zM-189 821q0 31 20 47.5t46 16.5t46.5 -16.5t20.5 -47.5q0 -32 -20.5 -48t-46.5 -16t-46 16t-20 48z" />
    <glyph glyph-name="uni030A.case" 
d="M-146 735q-59 0 -92.5 33.5t-33.5 86.5q0 52 33.5 85t92.5 33q58 0 91.5 -33t33.5 -85q0 -53 -33.5 -86.5t-91.5 -33.5zM-146 800q24 0 38.5 15.5t14.5 39.5q0 23 -14.5 38t-38.5 15q-25 0 -39.5 -15t-14.5 -38q0 -24 14.5 -39.5t39.5 -15.5z" />
    <glyph glyph-name="uni030C.case" 
d="M-61 889v-12l-116 -123h-85l-117 123v12h91l68 -66l68 66h91z" />
    <glyph glyph-name="uni0337.case" 
d="M-107 459l37 -77l-317 -149l-37 76z" />
    <glyph glyph-name="uni0338.case" 
d="M-110 706l59 -59l-668 -668l-59 59z" />
    </font>
</defs>
</svg>
